<?xml version="1.0" encoding="UTF-8" standalone="no"?>
<!-- Created with Inkscape (http://www.inkscape.org/) -->

<svg
   width="479.24478mm"
   height="89.572807mm"
   viewBox="0 0 479.24478 89.572805"
   version="1.1"
   id="svg1"
   sodipodi:docname="relationaldb.svg"
   inkscape:version="1.3 (0e150ed6c4, 2023-07-21)"
   xmlns:inkscape="http://www.inkscape.org/namespaces/inkscape"
   xmlns:sodipodi="http://sodipodi.sourceforge.net/DTD/sodipodi-0.dtd"
   xmlns:xlink="http://www.w3.org/1999/xlink"
   xmlns="http://www.w3.org/2000/svg"
   xmlns:svg="http://www.w3.org/2000/svg">
  <sodipodi:namedview
     id="namedview1"
     pagecolor="#ffffff"
     bordercolor="#000000"
     borderopacity="0.25"
     inkscape:showpageshadow="2"
     inkscape:pageopacity="0.0"
     inkscape:pagecheckerboard="0"
     inkscape:deskcolor="#d1d1d1"
     inkscape:document-units="mm"
     inkscape:zoom="0.52160714"
     inkscape:cx="1261.4858"
     inkscape:cy="192.67374"
     inkscape:window-width="2560"
     inkscape:window-height="1413"
     inkscape:window-x="1080"
     inkscape:window-y="27"
     inkscape:window-maximized="1"
     inkscape:current-layer="layer1" />
  <defs
     id="defs1">
    <inkscape:path-effect
       effect="fillet_chamfer"
       id="path-effect43"
       is_visible="true"
       lpeversion="1"
       nodesatellites_param="F,0,0,1,0,0,0,1 @ F,0,0,1,0,6.6145833,0,1 @ F,0,0,1,0,6.6145833,0,1 @ F,0,0,1,0,0,0,1"
       radius="25"
       unit="px"
       method="auto"
       mode="F"
       chamfer_steps="1"
       flexible="false"
       use_knot_distance="true"
       apply_no_radius="true"
       apply_with_radius="true"
       only_selected="false"
       hide_knots="false" />
    <inkscape:path-effect
       effect="fillet_chamfer"
       id="path-effect42"
       is_visible="true"
       lpeversion="1"
       nodesatellites_param="F,0,0,1,0,0,0,1 @ F,0,0,1,0,6.6145833,0,1 @ F,0,0,1,0,6.6145833,0,1 @ F,0,0,1,0,0,0,1"
       radius="25"
       unit="px"
       method="auto"
       mode="F"
       chamfer_steps="1"
       flexible="false"
       use_knot_distance="true"
       apply_no_radius="true"
       apply_with_radius="true"
       only_selected="false"
       hide_knots="false" />
    <linearGradient
       inkscape:collect="always"
       xlink:href="#swatch1"
       id="linearGradient4"
       gradientUnits="userSpaceOnUse"
       gradientTransform="translate(-262.28122,-110.39869)"
       x1="277.05573"
       y1="60.661732"
       x2="315.22009"
       y2="60.661732" />
    <linearGradient
       id="swatch1"
       inkscape:swatch="solid"
       gradientTransform="matrix(0.12013252,0,0,0.26458333,125.75093,0)">
      <stop
         style="stop-color:#78290f;stop-opacity:1;"
         offset="0"
         id="stop1" />
    </linearGradient>
    <linearGradient
       inkscape:collect="always"
       xlink:href="#swatch3"
       id="linearGradient3"
       x1="276.62695"
       y1="-31.479488"
       x2="312.09146"
       y2="-31.479488"
       gradientUnits="userSpaceOnUse"
       gradientTransform="translate(-224.4381,-18.257469)" />
    <linearGradient
       id="swatch3"
       inkscape:swatch="solid"
       gradientTransform="matrix(0.00490061,0,0,0.00490061,2268.5559,0.8408399)">
      <stop
         style="stop-color:#15616d;stop-opacity:1;"
         offset="0"
         id="stop3" />
    </linearGradient>
    <linearGradient
       inkscape:collect="always"
       xlink:href="#swatch5"
       id="linearGradient5"
       x1="304.9494"
       y1="-65.92382"
       x2="339.20596"
       y2="-65.92382"
       gradientUnits="userSpaceOnUse"
       gradientTransform="translate(-217.29604,16.186872)" />
    <linearGradient
       id="swatch5"
       inkscape:swatch="solid">
      <stop
         style="stop-color:#ffecd1;stop-opacity:1;"
         offset="0"
         id="stop5" />
    </linearGradient>
    <linearGradient
       inkscape:collect="always"
       xlink:href="#swatch6"
       id="linearGradient6"
       x1="339.20593"
       y1="-65.92382"
       x2="373.78992"
       y2="-65.92382"
       gradientUnits="userSpaceOnUse"
       gradientTransform="translate(-217.29604,16.186872)" />
    <linearGradient
       id="swatch6"
       inkscape:swatch="solid"
       gradientTransform="matrix(0.12144809,0,0,0.26452187,402.81688,20.407989)">
      <stop
         style="stop-color:#ff7d00;stop-opacity:1;"
         offset="0"
         id="stop6" />
    </linearGradient>
    <linearGradient
       id="swatch7"
       inkscape:swatch="solid"
       gradientTransform="matrix(-6.1110016e-5,0,0,3.5496794e-5,1265.1842,-27.41673)">
      <stop
         style="stop-color:#001524;stop-opacity:1;"
         offset="0"
         id="stop7" />
    </linearGradient>
    <linearGradient
       inkscape:collect="always"
       xlink:href="#swatch1"
       id="linearGradient1"
       gradientUnits="userSpaceOnUse"
       gradientTransform="translate(-262.28122,-110.39869)"
       x1="277.05573"
       y1="60.661732"
       x2="315.22009"
       y2="60.661732" />
    <linearGradient
       inkscape:collect="always"
       xlink:href="#swatch7"
       id="linearGradient2"
       gradientUnits="userSpaceOnUse"
       gradientTransform="translate(-217.29604,16.186872)"
       x1="373.78992"
       y1="-65.92382"
       x2="410.74933"
       y2="-65.92382" />
    <filter
       style="color-interpolation-filters:sRGB"
       inkscape:label="Drop Shadow"
       id="filter92"
       x="-0.072413816"
       y="-0.11717626"
       width="1.1589351"
       height="1.2571791">
      <feFlood
         result="flood"
         in="SourceGraphic"
         flood-opacity="0.498039"
         flood-color="rgb(0,0,0)"
         id="feFlood91" />
      <feGaussianBlur
         result="blur"
         in="SourceGraphic"
         stdDeviation="6.000000"
         id="feGaussianBlur91" />
      <feOffset
         result="offset"
         in="blur"
         dx="3.000000"
         dy="3.000000"
         id="feOffset91" />
      <feComposite
         result="comp1"
         operator="in"
         in="flood"
         in2="offset"
         id="feComposite91" />
      <feComposite
         result="comp2"
         operator="over"
         in="SourceGraphic"
         in2="comp1"
         id="feComposite92" />
    </filter>
    <filter
       style="color-interpolation-filters:sRGB"
       inkscape:label="Drop Shadow"
       id="filter94"
       x="-0.072418909"
       y="-0.16903019"
       width="1.1589454"
       height="1.3709883">
      <feFlood
         result="flood"
         in="SourceGraphic"
         flood-opacity="0.498039"
         flood-color="rgb(0,0,0)"
         id="feFlood92" />
      <feGaussianBlur
         result="blur"
         in="SourceGraphic"
         stdDeviation="6.000000"
         id="feGaussianBlur92" />
      <feOffset
         result="offset"
         in="blur"
         dx="3.000000"
         dy="3.000000"
         id="feOffset92" />
      <feComposite
         result="comp1"
         operator="in"
         in="flood"
         in2="offset"
         id="feComposite93" />
      <feComposite
         result="comp2"
         operator="over"
         in="SourceGraphic"
         in2="comp1"
         id="feComposite94" />
    </filter>
    <filter
       style="color-interpolation-filters:sRGB"
       inkscape:label="Drop Shadow"
       id="filter96"
       x="-0.072409368"
       y="-0.11717626"
       width="1.1589351"
       height="1.2571791">
      <feFlood
         result="flood"
         in="SourceGraphic"
         flood-opacity="0.498039"
         flood-color="rgb(0,0,0)"
         id="feFlood94" />
      <feGaussianBlur
         result="blur"
         in="SourceGraphic"
         stdDeviation="6.000000"
         id="feGaussianBlur94" />
      <feOffset
         result="offset"
         in="blur"
         dx="3.000000"
         dy="3.000000"
         id="feOffset94" />
      <feComposite
         result="comp1"
         operator="in"
         in="flood"
         in2="offset"
         id="feComposite95" />
      <feComposite
         result="comp2"
         operator="over"
         in="SourceGraphic"
         in2="comp1"
         id="feComposite96" />
    </filter>
  </defs>
  <g
     inkscape:label="Layer 1"
     inkscape:groupmode="layer"
     id="layer1"
     transform="translate(-289.60861,36.597238)">
    <path
       id="path44"
       style="fill:none;fill-opacity:1;stroke:url(#swatch7);stroke-width:1.13045;stroke-linecap:round;stroke-linejoin:round;stroke-dasharray:none;stroke-opacity:0.998262"
       d="m 591.32357,18.509719 4.91643,4.522732 -4.84147,4.453783 m -0.40613,-4.495087 h 16.39007 a 3.8980675,3.5859188 0 0 0 3.89806,-3.585918 V 6.1444146 A 3.8980675,3.5859188 0 0 1 615.1786,2.558496 h 17.45541" />
    <rect
       style="fill:url(#linearGradient1);stroke:none;stroke-width:1.5;stroke-linecap:round;stroke-linejoin:bevel;stroke-opacity:0.998262"
       id="rect1"
       width="36.664364"
       height="35.426338"
       x="15.524497"
       y="-67.450134"
       ry="1.1110742" />
    <rect
       style="fill:url(#linearGradient4);stroke:none;stroke-width:1.5;stroke-linecap:round;stroke-linejoin:bevel;stroke-opacity:0.998262"
       id="rect2"
       width="36.664364"
       height="35.426338"
       x="15.524497"
       y="-67.450134"
       ry="1.1110742" />
    <rect
       style="fill:url(#linearGradient3);stroke:none;stroke-width:1.5;stroke-linecap:round;stroke-linejoin:bevel;stroke-opacity:0.998262"
       id="rect3"
       width="35.4645"
       height="35.426338"
       x="52.18885"
       y="-67.450134"
       ry="1.1110742" />
    <rect
       style="fill:url(#linearGradient5);stroke:none;stroke-width:1.5;stroke-linecap:round;stroke-linejoin:bevel;stroke-opacity:0.998262"
       id="rect4"
       width="34.256546"
       height="35.426338"
       x="87.653358"
       y="-67.450119"
       ry="1.1110742" />
    <rect
       style="fill:url(#linearGradient6);stroke:none;stroke-width:1.5;stroke-linecap:round;stroke-linejoin:bevel;stroke-opacity:0.998262"
       id="rect5"
       width="34.583988"
       height="35.426338"
       x="121.90989"
       y="-67.450119"
       ry="1.1110742" />
    <rect
       style="fill:url(#linearGradient2);stroke:none;stroke-width:1.5;stroke-linecap:round;stroke-linejoin:bevel;stroke-opacity:0.998262"
       id="rect6"
       width="36.959427"
       height="35.426338"
       x="156.49387"
       y="-67.450119"
       ry="1.1110742" />
    <g
       id="g39"
       transform="matrix(0.58931414,0,0,0.54212316,134.55204,-9.4950086)"
       style="filter:url(#filter92)">
      <rect
         style="fill:url(#swatch5);stroke:url(#swatch7);stroke-width:2;stroke-linecap:round;stroke-linejoin:bevel;stroke-dasharray:none;stroke-opacity:0.998262"
         id="rect7"
         width="212.65164"
         height="131.42593"
         x="278.51361"
         y="-34.592754"
         ry="9.3543987" />
      <rect
         style="fill:#fff0dd;fill-opacity:1;stroke:url(#swatch7);stroke-width:1.99811;stroke-linecap:round;stroke-linejoin:round;stroke-dasharray:none;stroke-opacity:0.998262"
         id="rect45"
         width="212.65355"
         height="29.29945"
         x="278.51266"
         y="-25.05706"
         ry="0" />
      <path
         id="rect8"
         style="fill:url(#swatch3);stroke:url(#swatch7);stroke-width:2;stroke-linecap:round;stroke-linejoin:bevel;stroke-dasharray:none;stroke-opacity:0.998262"
         d="m 287.86822,-34.592721 c -5.08421,0 -9.17216,4.022622 -9.32605,9.068181 h 212.59426 c -0.15391,-5.045538 -4.24134,-9.068181 -9.32553,-9.068181 z" />
      <path
         d="m 354.94639,-18.409168 q 1.13455,0 2.00502,0.185831 0.87047,0.17605 1.55511,0.469467 l -0.85091,2.014796 q -0.53793,-0.205392 -1.10521,-0.293417 -0.56727,-0.09781 -1.12476,-0.09781 -0.91937,0 -1.32038,0.33254 -0.39122,0.332539 -0.39122,1.105203 v 1.38884 h 3.38408 l -0.34232,2.141944 h -3.04176 v 7.5897175 h -3.0711 V -11.16177 h -2.18106 v -2.141944 h 2.18106 v -1.506206 q 0,-1.02696 0.48903,-1.838746 0.48903,-0.811787 1.44753,-1.281254 0.95849,-0.479248 2.36689,-0.479248 z m 4.1172,14.8371155 V -5.645532 h 1.36928 v -6.259561 h -1.36928 v -2.053918 h 3.7264 l 0.56727,2.337554 q 0.55749,-1.339937 1.41818,-1.995235 0.87047,-0.655297 2.12238,-0.655297 0.52815,0 0.93894,0.08803 0.41078,0.07824 0.77266,0.224953 l -0.57705,4.34257 h -1.93655 v -1.916991 q -0.88025,0.156489 -1.54533,0.958496 -0.66508,0.7922254 -1.02696,1.9561125 v 2.9732915 h 2.05392 v 2.0734795 z m 15.01275,-15.8249525 q 0.802,0 1.31059,0.498809 0.50859,0.498809 0.50859,1.242131 0,0.743323 -0.50859,1.251913 -0.50859,0.498808 -1.31059,0.498808 -0.81179,0 -1.33016,-0.498808 -0.50859,-0.50859 -0.50859,-1.251913 0,-0.743322 0.50859,-1.242131 0.51837,-0.498809 1.33016,-0.498809 z m 1.86809,5.437994 v 8.2743567 h 2.64075 v 2.1126018 h -8.67536 v -2.1126018 h 2.94395 V -11.84641 h -2.84615 v -2.112601 z m 6.96334,6.093291 q 0.15649,1.2714733 0.83135,1.8289654 0.67486,0.5477116 1.66269,0.5477116 0.71398,0 1.37906,-0.2347335 0.66508,-0.2347336 1.28126,-0.6259561 l 1.24213,1.682257 q -0.73354,0.6259561 -1.78007,1.0269592 -1.03674,0.4010031 -2.36689,0.4010031 -1.78006,0 -2.98307,-0.7042006 -1.20301,-0.7139812 -1.80941,-1.9561128 -0.60639,-1.2421316 -0.60639,-2.8559247 0,-1.5355486 0.58683,-2.7874606 0.58683,-1.261693 1.7116,-2.005016 1.13454,-0.753103 2.7679,-0.753103 1.48664,0 2.57229,0.635737 1.09542,0.635736 1.69203,1.828965 0.6064,1.193229 0.6064,2.8657052 0,0.2640753 -0.0196,0.5672727 -0.01,0.3031975 -0.0391,0.5379311 z m 1.91699,-4.362132 q -0.83135,0 -1.33994,0.596615 -0.50859,0.596614 -0.61617,1.9072098 h 3.81442 q -0.01,-1.1345458 -0.44013,-1.8191848 -0.43034,-0.68464 -1.41818,-0.68464 z m 6.03419,8.6557995 V -13.959011 h 2.69944 l 0.21517,1.203009 q 0.69442,-0.782445 1.46708,-1.163887 0.77267,-0.381442 1.7605,-0.381442 1.33016,0 2.09304,0.811787 0.76289,0.811786 0.76289,2.288652 v 7.6288395 h -3.09066 v -6.7388085 q 0,-0.958495 -0.21517,-1.330157 -0.20539,-0.381442 -0.78245,-0.381442 -0.48903,0 -0.93893,0.312978 -0.44013,0.312978 -0.88025,0.870471 v 7.2669585 z m 16.53851,-14.8371155 3.09066,0.322759 v 14.5143565 h -2.73856 l -0.15648,-1.144326 q -0.43035,0.606395 -1.14433,1.0465204 -0.71398,0.4303448 -1.73116,0.4303448 -1.29103,0 -2.14194,-0.69442 -0.84113,-0.6944201 -1.2617,-1.9365517 -0.41078,-1.2519122 -0.41078,-2.9243886 0,-1.6040124 0.49881,-2.8461444 0.49881,-1.242131 1.42796,-1.946332 0.92915,-0.713981 2.21041,-0.713981 1.39862,0 2.35711,0.958495 z m -1.52576,6.367147 q -0.80201,0 -1.29104,0.762884 -0.48903,0.753104 -0.48903,2.5038245 0,1.2812539 0.2054,1.995235 0.20539,0.7042007 0.56727,0.987837 0.36188,0.2836364 0.83135,0.2836364 0.51837,0 0.93893,-0.3227586 0.43035,-0.3227587 0.76288,-0.8802508 v -4.4794985 q -0.32275,-0.401003 -0.68464,-0.625956 -0.36188,-0.224953 -0.84112,-0.224953 z m 10.41588,6.5921002 q 0.77266,0 1.24213,-0.2445141 0.47925,-0.2445141 0.47925,-0.7335422 0,-0.3325392 -0.18583,-0.5574922 -0.18583,-0.224953 -0.71398,-0.4303448 -0.52816,-0.2053919 -1.56489,-0.4890282 -1.42797,-0.381442 -2.32778,-1.0954232 -0.89003,-0.7139811 -0.89003,-2.0930405 0,-1.38884 1.15411,-2.298433 1.16388,-0.909592 3.35473,-0.909592 1.38884,0 2.4158,0.361881 1.03674,0.3521 1.78984,0.899812 l -1.23235,1.819185 q -0.64552,-0.401004 -1.38884,-0.635737 -0.74332,-0.244514 -1.49643,-0.244514 -1.48664,0 -1.48664,0.802006 0,0.264075 0.18583,0.459687 0.19561,0.18583 0.72376,0.391222 0.52815,0.195611 1.54533,0.4890283 1.0074,0.2836363 1.75072,0.6552978 0.7531,0.3716614 1.16389,0.9976175 0.41078,0.6161755 0.41078,1.6333542 0,1.1345454 -0.67486,1.9072099 -0.67486,0.762884 -1.78984,1.144326 -1.11498,0.381442 -2.44514,0.381442 -1.50621,0 -2.66031,-0.4303448 -1.15411,-0.4303448 -1.9659,-1.1345454 l 1.55511,-1.7409404 q 0.6064,0.4694671 1.36928,0.7824451 0.77267,0.312978 1.68226,0.312978 z"
         id="text8"
         style="font-weight:bold;font-size:19.0721px;line-height:0.9;font-family:'Fira Code';-inkscape-font-specification:'Fira Code, Bold';font-variant-ligatures:no-contextual;text-align:center;letter-spacing:-1.10563px;text-anchor:middle;stroke-width:2;stroke-linecap:round;stroke-linejoin:bevel;stroke-opacity:0.998262"
         aria-label="friends" />
      <path
         d="m 291.40666,14.49781 q 0.65062,0 1.06321,0.404655 0.41259,0.404655 0.41259,1.00767 0,0.603015 -0.41259,1.015604 -0.41259,0.404655 -1.06321,0.404655 -0.65856,0 -1.07908,-0.404655 -0.41259,-0.412589 -0.41259,-1.015604 0,-0.603015 0.41259,-1.00767 0.42052,-0.404655 1.07908,-0.404655 z m 1.51547,4.411532 v 6.712511 h 2.14229 v 1.713833 h -7.03782 v -1.713833 h 2.38826 v -4.998678 h -2.30892 v -1.713833 z m 8.26731,-3.610157 2.50728,0.261836 v 11.774665 h -2.22164 l -0.12695,-0.928326 q -0.34911,0.491933 -0.92832,0.848982 -0.57922,0.349114 -1.4044,0.349114 -1.04734,0 -1.73763,-0.563343 -0.68236,-0.563344 -1.02354,-1.571014 -0.33325,-1.015604 -0.33325,-2.372388 0,-1.301244 0.40466,-2.308914 0.40465,-1.00767 1.15842,-1.578948 0.75377,-0.579211 1.79318,-0.579211 1.13462,0 1.91219,0.777572 z m -1.23776,5.165301 q -0.65063,0 -1.04735,0.618884 -0.39672,0.61095 -0.39672,2.031209 0,1.039408 0.16663,1.61862 0.16662,0.571278 0.46019,0.801376 0.29357,0.230097 0.67443,0.230097 0.42052,0 0.7617,-0.261835 0.34911,-0.261836 0.61888,-0.714097 v -3.63396 q -0.26183,-0.325311 -0.55541,-0.507802 -0.29357,-0.182492 -0.68235,-0.182492 z"
         id="text9"
         style="font-weight:bold;font-size:15.4721px;line-height:0.9;font-family:'Fira Code';-inkscape-font-specification:'Fira Code, Bold';font-variant-ligatures:no-contextual;text-align:center;letter-spacing:-0.896937px;text-anchor:middle;stroke-width:2;stroke-linecap:round;stroke-linejoin:bevel;stroke-opacity:0.998262"
         aria-label="id" />
      <path
         d="m 293.2871,32.576796 q 0.92039,0 1.62656,0.150754 0.70616,0.142819 1.26157,0.380851 l -0.6903,1.634489 q -0.43639,-0.166623 -0.89658,-0.238032 -0.4602,-0.07934 -0.91246,-0.07934 -0.74584,0 -1.07115,0.26977 -0.31737,0.269769 -0.31737,0.896588 v 1.126686 h 2.7453 l -0.2777,1.737636 h -2.4676 v 6.157103 h -2.49141 v -6.157103 h -1.76937 v -1.737636 h 1.76937 v -1.221899 q 0,-0.833113 0.39672,-1.491669 0.39672,-0.658556 1.1743,-1.039408 0.77757,-0.388786 1.92012,-0.388786 z m 6.89466,-0.801376 q 0.65063,0 1.06321,0.404655 0.41259,0.404655 0.41259,1.007671 0,0.603015 -0.41259,1.015604 -0.41258,0.404655 -1.06321,0.404655 -0.65855,0 -1.07908,-0.404655 -0.41259,-0.412589 -0.41259,-1.015604 0,-0.603016 0.41259,-1.007671 0.42053,-0.404655 1.07908,-0.404655 z m 1.51548,4.411533 v 6.712511 h 2.14229 v 1.713833 h -7.03783 v -1.713833 h 2.38826 v -4.998679 h -2.30891 v -1.713832 z m 3.55427,8.426344 v -1.682095 h 1.11082 v -5.078023 h -1.11082 v -1.666226 h 3.02301 l 0.4602,1.896324 q 0.45226,-1.087014 1.15049,-1.61862 0.70616,-0.531605 1.72176,-0.531605 0.42846,0 0.76171,0.07141 0.33324,0.06348 0.62681,0.182492 l -0.46813,3.522878 h -1.57101 v -1.555145 q -0.7141,0.126951 -1.25364,0.777573 -0.53954,0.642687 -0.83311,1.586882 v 2.412061 h 1.66623 v 1.682095 z m 11.92508,-1.523407 q 0.62682,0 1.00767,-0.198361 0.38878,-0.19836 0.38878,-0.59508 0,-0.26977 -0.15075,-0.452262 -0.15075,-0.182491 -0.57921,-0.349114 -0.42846,-0.166622 -1.26951,-0.39672 -1.15842,-0.309442 -1.88839,-0.888654 -0.72203,-0.579212 -0.72203,-1.697964 0,-1.126686 0.93626,-1.864587 0.9442,-0.7379 2.7215,-0.7379 1.12669,0 1.9598,0.293573 0.84105,0.285639 1.452,0.729966 l -0.99973,1.475801 q -0.52368,-0.325311 -1.12669,-0.515737 -0.60302,-0.19836 -1.21397,-0.19836 -1.20603,0 -1.20603,0.650621 0,0.214229 0.15076,0.372918 0.15869,0.150753 0.58714,0.317376 0.42846,0.158688 1.25364,0.396721 0.81725,0.230097 1.42026,0.531605 0.61095,0.301508 0.9442,0.80931 0.33324,0.499868 0.33324,1.325046 0,0.920392 -0.54747,1.54721 -0.54748,0.618884 -1.452,0.928326 -0.90452,0.309442 -1.9836,0.309442 -1.2219,0 -2.15816,-0.349114 -0.93626,-0.349114 -1.59482,-0.920391 l 1.26157,-1.412325 q 0.49193,0.380851 1.11082,0.634753 0.62682,0.253901 1.36472,0.253901 z m 12.8296,1.031473 q -0.49194,0.317376 -1.19017,0.53954 -0.69822,0.222163 -1.57101,0.222163 -1.65036,0 -2.45173,-0.841047 -0.80138,-0.848982 -0.80138,-2.300979 v -3.824386 h -1.76937 v -1.729701 h 1.76937 v -1.824915 l 2.50728,-0.301507 v 2.126422 h 2.71356 l -0.24596,1.729701 h -2.4676 v 3.824386 q 0,0.626818 0.28564,0.896588 0.28563,0.26977 0.91245,0.26977 0.44433,0 0.80931,-0.103147 0.37292,-0.111082 0.66649,-0.277704 z m 0.72169,3.443534 v -1.967734 h 7.93441 v 1.967734 z m 8.94174,-2.9516 v -8.426344 h 2.18989 l 0.17456,0.975932 q 0.56334,-0.634753 1.19016,-0.944195 0.62682,-0.309442 1.4282,-0.309442 1.07908,0 1.69796,0.658556 0.61888,0.658556 0.61888,1.856652 v 6.188841 H 344.462 v -5.466809 q 0,-0.777572 -0.17456,-1.07908 -0.16662,-0.309442 -0.63475,-0.309442 -0.39672,0 -0.7617,0.253901 -0.35705,0.253901 -0.7141,0.706163 v 5.895267 z m 15.71772,-2.42793 q 0,0.476065 0.12695,0.690294 0.13489,0.214229 0.42846,0.32531 l -0.51574,1.650358 q -0.74583,-0.07141 -1.26157,-0.325311 -0.5078,-0.261836 -0.80137,-0.785507 -0.484,0.579212 -1.23777,0.864851 -0.75377,0.277704 -1.53928,0.277704 -1.30124,0 -2.07881,-0.7379 -0.76964,-0.745834 -0.76964,-1.912193 0,-1.372653 1.07115,-2.118487 1.07907,-0.745835 3.03094,-0.745835 h 1.13462 v -0.317376 q 0,-1.293309 -1.66623,-1.293309 -0.40465,0 -1.0394,0.119016 -0.63476,0.111082 -1.26951,0.325311 l -0.57921,-1.666226 q 0.81724,-0.309442 1.69796,-0.46813 0.88866,-0.158689 1.58688,-0.158689 1.88046,0 2.77705,0.769638 0.90452,0.761704 0.90452,2.205766 z m -3.93547,0.904523 q 0.40466,0 0.84899,-0.238033 0.44432,-0.245966 0.67442,-0.690293 v -1.364719 h -0.61888 q -1.04735,0 -1.53928,0.325311 -0.49193,0.317376 -0.49193,0.93626 0,0.483999 0.29357,0.761704 0.30151,0.26977 0.83311,0.26977 z m 11.69498,-7.180642 q 0.89659,0 1.32505,0.587147 0.43639,0.579212 0.43639,1.880455 v 6.236447 h -2.15023 v -5.950808 q 0,-0.444327 -0.0873,-0.626819 -0.0794,-0.182491 -0.33325,-0.182491 -0.19836,0 -0.41259,0.119016 -0.20629,0.111082 -0.4602,0.428458 v 6.212644 h -1.76143 v -5.950808 q 0,-0.444327 -0.0873,-0.626819 -0.0793,-0.182491 -0.33325,-0.182491 -0.19836,0 -0.41259,0.119016 -0.20629,0.111082 -0.46019,0.428458 v 6.212644 h -2.18197 v -8.426344 h 1.84079 l 0.16662,0.817244 q 0.39672,-0.53954 0.80138,-0.817244 0.40465,-0.277705 0.96006,-0.277705 0.47606,0 0.80931,0.245967 0.34118,0.238032 0.484,0.753769 0.38085,-0.444327 0.84105,-0.722031 0.46019,-0.277705 1.0156,-0.277705 z m 4.56988,5.220842 q 0.12695,1.031474 0.67443,1.483735 0.54747,0.444327 1.34885,0.444327 0.57921,0 1.11875,-0.190426 0.53954,-0.190426 1.03941,-0.507802 l 1.00767,1.364719 q -0.59508,0.507802 -1.44407,0.833113 -0.84104,0.32531 -1.92012,0.32531 -1.44407,0 -2.42,-0.571277 -0.97593,-0.579212 -1.46786,-1.586882 -0.49194,-1.00767 -0.49194,-2.316848 0,-1.245702 0.47607,-2.261307 0.47606,-1.023539 1.38852,-1.626554 0.92039,-0.61095 2.24544,-0.61095 1.20603,0 2.08675,0.515737 0.88865,0.515737 1.37265,1.483735 0.49193,0.967998 0.49193,2.324782 0,0.214229 -0.0159,0.460196 -0.008,0.245966 -0.0317,0.436392 z m 1.55515,-3.538747 q -0.67443,0 -1.08702,0.483999 -0.41259,0.483999 -0.49986,1.54721 h 3.09442 q -0.008,-0.920391 -0.35705,-1.4758 -0.34912,-0.555409 -1.15049,-0.555409 z"
         id="text10"
         style="font-weight:bold;font-size:15.4721px;line-height:0.9;font-family:'Fira Code';-inkscape-font-specification:'Fira Code, Bold';font-variant-ligatures:no-contextual;text-align:center;letter-spacing:-0.896937px;text-anchor:middle;stroke-width:2;stroke-linecap:round;stroke-linejoin:bevel;stroke-opacity:0.998262"
         aria-label="first_name" />
      <path
         d="m 293.01733,51.73486 v 9.124572 q 0,0.507802 0.28564,0.729966 0.29358,0.214229 0.80138,0.214229 0.32531,0 0.62682,-0.07141 0.3015,-0.07934 0.56334,-0.182491 l 0.60301,1.674161 q -0.42845,0.222163 -1.03147,0.388786 -0.60301,0.166622 -1.40439,0.166622 -1.52341,0 -2.2375,-0.872785 -0.7141,-0.880719 -0.7141,-2.35652 v -7.101297 h -2.48347 V 51.73486 Z m 11.32207,9.346736 q 0,0.476064 0.12695,0.690293 0.13488,0.21423 0.42845,0.325311 l -0.51573,1.650358 q -0.74584,-0.07141 -1.26157,-0.325311 -0.50781,-0.261836 -0.80138,-0.785507 -0.484,0.579212 -1.23777,0.864851 -0.75377,0.277704 -1.53927,0.277704 -1.30125,0 -2.07882,-0.7379 -0.76964,-0.745834 -0.76964,-1.912193 0,-1.372653 1.07115,-2.118487 1.07908,-0.745835 3.03094,-0.745835 h 1.13462 v -0.317376 q 0,-1.293309 -1.66622,-1.293309 -0.40466,0 -1.03941,0.119016 -0.63475,0.111082 -1.26951,0.325311 l -0.57921,-1.666226 q 0.81725,-0.309442 1.69797,-0.468131 0.88865,-0.158688 1.58688,-0.158688 1.88045,0 2.77704,0.769638 0.90453,0.761703 0.90453,2.205766 z m -3.93547,0.904523 q 0.40465,0 0.84898,-0.238033 0.44433,-0.245967 0.67442,-0.690294 v -1.364718 h -0.61888 q -1.04734,0 -1.53928,0.325311 -0.49193,0.317376 -0.49193,0.93626 0,0.483999 0.29357,0.761704 0.30151,0.26977 0.83312,0.26977 z m 8.84652,0 q 0.62682,0 1.00767,-0.198361 0.38879,-0.19836 0.38879,-0.595081 0,-0.269769 -0.15075,-0.452261 -0.15076,-0.182491 -0.57922,-0.349114 -0.42845,-0.166623 -1.2695,-0.396721 -1.15843,-0.309442 -1.88839,-0.888653 -0.72203,-0.579212 -0.72203,-1.697964 0,-1.126687 0.93626,-1.864587 0.94419,-0.7379 2.7215,-0.7379 1.12669,0 1.9598,0.293573 0.84105,0.285639 1.452,0.729966 l -0.99974,1.4758 q -0.52367,-0.32531 -1.12669,-0.515736 -0.60301,-0.198361 -1.21396,-0.198361 -1.20603,0 -1.20603,0.650622 0,0.214229 0.15075,0.372917 0.15869,0.150754 0.58715,0.317377 0.42846,0.158688 1.25364,0.39672 0.81724,0.230098 1.42026,0.531606 0.61095,0.301507 0.94419,0.80931 0.33325,0.499868 0.33325,1.325046 0,0.920392 -0.54748,1.54721 -0.54747,0.618884 -1.452,0.928326 -0.90452,0.309442 -1.9836,0.309442 -1.2219,0 -2.15816,-0.349114 -0.93626,-0.349114 -1.59481,-0.920391 l 1.26157,-1.412325 q 0.49193,0.380851 1.11081,0.634752 0.62682,0.253902 1.36472,0.253902 z m 12.8296,1.031473 q -0.49193,0.317376 -1.19016,0.53954 -0.69823,0.222163 -1.57101,0.222163 -1.65036,0 -2.45173,-0.841047 -0.80138,-0.848982 -0.80138,-2.300979 v -3.824386 h -1.76937 v -1.729702 h 1.76937 v -1.824914 l 2.50727,-0.301508 v 2.126422 h 2.71357 l -0.24596,1.729702 h -2.46761 v 3.824386 q 0,0.626818 0.28564,0.896588 0.28564,0.26977 0.91246,0.26977 0.44433,0 0.80931,-0.103147 0.37292,-0.111082 0.66649,-0.277705 z m 0.72169,3.443534 v -1.967734 h 7.93441 v 1.967734 z m 8.94174,-2.951601 v -8.426344 h 2.1899 l 0.17456,0.975933 q 0.56334,-0.634753 1.19016,-0.944195 0.62682,-0.309442 1.42819,-0.309442 1.07908,0 1.69796,0.658556 0.61889,0.658556 0.61889,1.856652 v 6.18884 h -2.50728 v -5.466808 q 0,-0.777573 -0.17455,-1.07908 -0.16662,-0.309442 -0.63475,-0.309442 -0.39673,0 -0.76171,0.253901 -0.35705,0.253901 -0.7141,0.706162 v 5.895267 z m 15.71773,-2.427929 q 0,0.476064 0.12695,0.690293 0.13488,0.21423 0.42846,0.325311 l -0.51574,1.650358 q -0.74584,-0.07141 -1.26157,-0.325311 -0.5078,-0.261836 -0.80138,-0.785507 -0.484,0.579212 -1.23777,0.864851 -0.75376,0.277704 -1.53927,0.277704 -1.30124,0 -2.07882,-0.7379 -0.76963,-0.745834 -0.76963,-1.912193 0,-1.372653 1.07114,-2.118487 1.07908,-0.745835 3.03095,-0.745835 h 1.13462 v -0.317376 q 0,-1.293309 -1.66623,-1.293309 -0.40465,0 -1.03941,0.119016 -0.63475,0.111082 -1.2695,0.325311 l -0.57922,-1.666226 q 0.81725,-0.309442 1.69797,-0.468131 0.88865,-0.158688 1.58688,-0.158688 1.88046,0 2.77704,0.769638 0.90453,0.761703 0.90453,2.205766 z m -3.93547,0.904523 q 0.40465,0 0.84898,-0.238033 0.44433,-0.245967 0.67443,-0.690294 v -1.364718 h -0.61889 q -1.04734,0 -1.53927,0.325311 -0.49194,0.317376 -0.49194,0.93626 0,0.483999 0.29358,0.761704 0.3015,0.26977 0.83311,0.26977 z m 11.69498,-7.180642 q 0.89659,0 1.32505,0.587146 0.43639,0.579212 0.43639,1.880456 v 6.236446 h -2.15023 v -5.950807 q 0,-0.444327 -0.0873,-0.626819 -0.0793,-0.182491 -0.33324,-0.182491 -0.19836,0 -0.41259,0.119016 -0.20629,0.111082 -0.4602,0.428458 v 6.212643 h -1.76143 v -5.950807 q 0,-0.444327 -0.0873,-0.626819 -0.0793,-0.182491 -0.33325,-0.182491 -0.19836,0 -0.41259,0.119016 -0.20629,0.111082 -0.46019,0.428458 v 6.212643 h -2.18197 v -8.426344 h 1.84079 l 0.16662,0.817245 q 0.39672,-0.53954 0.80137,-0.817245 0.40466,-0.277704 0.96007,-0.277704 0.47606,0 0.80931,0.245967 0.34118,0.238032 0.484,0.753769 0.38085,-0.444327 0.84104,-0.722032 0.4602,-0.277704 1.01561,-0.277704 z m 4.56987,5.220842 q 0.12696,1.031473 0.67443,1.483735 0.54747,0.444327 1.34885,0.444327 0.57921,0 1.11875,-0.190426 0.53954,-0.190426 1.03941,-0.507802 l 1.00767,1.364718 q -0.59508,0.507803 -1.44406,0.833113 -0.84105,0.325311 -1.92013,0.325311 -1.44406,0 -2.42,-0.571277 -0.97593,-0.579212 -1.46786,-1.586882 -0.49194,-1.00767 -0.49194,-2.316848 0,-1.245703 0.47607,-2.261307 0.47606,-1.023539 1.38852,-1.626554 0.92039,-0.61095 2.24544,-0.61095 1.20603,0 2.08675,0.515737 0.88865,0.515736 1.37265,1.483735 0.49194,0.967998 0.49194,2.324782 0,0.214229 -0.0159,0.460196 -0.008,0.245966 -0.0317,0.436392 z m 1.55515,-3.538747 q -0.67443,0 -1.08702,0.483999 -0.41258,0.483999 -0.49986,1.54721 h 3.09442 q -0.008,-0.920391 -0.35705,-1.4758 -0.34912,-0.555409 -1.15049,-0.555409 z"
         id="text11"
         style="font-weight:bold;font-size:15.4721px;line-height:0.9;font-family:'Fira Code';-inkscape-font-specification:'Fira Code, Bold';font-variant-ligatures:no-contextual;text-align:center;letter-spacing:-0.896937px;text-anchor:middle;stroke-width:2;stroke-linecap:round;stroke-linejoin:bevel;stroke-opacity:0.998262"
         aria-label="last_name" />
      <path
         d="m 290.53387,75.907471 q 0.39672,-0.523672 0.95213,-0.833114 0.56334,-0.309442 1.20603,-0.309442 1.62655,0 2.36445,1.206031 0.74584,1.20603 0.74584,3.261042 0,1.301244 -0.38879,2.324783 -0.38085,1.015604 -1.13462,1.602751 -0.75377,0.579212 -1.84872,0.579212 -1.32504,0 -2.08675,-1.031474 l -0.0952,0.761704 H 288.0266 V 71.694299 l 2.50728,-0.261836 z m 1.23777,6.006348 q 0.66649,0 1.05527,-0.610949 0.38879,-0.618884 0.38879,-2.039144 0,-1.047342 -0.16662,-1.61862 -0.15869,-0.579212 -0.4602,-0.801375 -0.29357,-0.230098 -0.69029,-0.230098 -0.42053,0 -0.75377,0.261836 -0.33325,0.261835 -0.61095,0.714097 v 3.554615 q 0.23803,0.372918 0.5316,0.571278 0.29358,0.19836 0.70617,0.19836 z m 8.51328,-11.282731 q 0.65062,0 1.06321,0.404655 0.41259,0.404654 0.41259,1.00767 0,0.603015 -0.41259,1.015604 -0.41259,0.404655 -1.06321,0.404655 -0.65856,0 -1.07908,-0.404655 -0.41259,-0.412589 -0.41259,-1.015604 0,-0.603016 0.41259,-1.00767 0.42052,-0.404655 1.07908,-0.404655 z m 1.51547,4.411532 v 6.712511 h 2.14229 v 1.713833 h -7.03782 v -1.713833 h 2.38825 V 76.756452 H 296.9842 V 75.04262 Z m 3.55427,8.426344 v -1.682095 h 1.11082 v -5.078023 h -1.11082 V 75.04262 h 3.02301 l 0.4602,1.896324 q 0.45226,-1.087014 1.15049,-1.61862 0.70616,-0.531605 1.72177,-0.531605 0.42845,0 0.7617,0.07141 0.33324,0.06348 0.62682,0.182492 l -0.46813,3.522878 h -1.57102 v -1.555144 q -0.71409,0.12695 -1.25363,0.777572 -0.53954,0.642687 -0.83312,1.586882 v 2.412061 h 1.66623 v 1.682095 z m 16.13032,-0.491934 q -0.49194,0.317377 -1.19016,0.53954 -0.69823,0.222164 -1.57102,0.222164 -1.65035,0 -2.45173,-0.841048 -0.80138,-0.848982 -0.80138,-2.300979 v -3.824386 h -1.76937 V 75.04262 h 1.76937 v -1.824915 l 2.50728,-0.301507 v 2.126422 h 2.71357 l -0.24597,1.729701 h -2.4676 v 3.824386 q 0,0.626818 0.28564,0.896588 0.28564,0.26977 0.91245,0.26977 0.44433,0 0.80931,-0.103147 0.37292,-0.111082 0.66649,-0.277704 z m 3.54634,-11.528698 v 4.427401 q 1.05527,-1.110818 2.47553,-1.110818 1.12669,0 1.72177,0.658556 0.59508,0.658557 0.59508,1.856653 v 6.18884 h -2.50727 v -5.490612 q 0,-0.761704 -0.17456,-1.063211 -0.16662,-0.301508 -0.63475,-0.301508 -0.39672,0 -0.76171,0.277704 -0.35705,0.26977 -0.71409,0.745835 v 5.831792 h -2.50728 V 71.694299 Z m 10.90947,-0.01587 2.50727,0.261836 v 11.774665 h -2.22163 l -0.12695,-0.928326 q -0.34912,0.491933 -0.92833,0.848982 -0.57921,0.349114 -1.40439,0.349114 -1.04734,0 -1.73764,-0.563344 -0.68235,-0.563343 -1.02353,-1.571013 -0.33325,-1.015604 -0.33325,-2.372389 0,-1.301243 0.40466,-2.308913 0.40465,-1.00767 1.15842,-1.578948 0.75377,-0.579212 1.79318,-0.579212 1.13462,0 1.91219,0.777573 z m -1.23777,5.165301 q -0.65062,0 -1.04734,0.618884 -0.39672,0.61095 -0.39672,2.031209 0,1.039408 0.16662,1.61862 0.16662,0.571278 0.4602,0.801375 0.29357,0.230098 0.67442,0.230098 0.42053,0 0.76171,-0.261835 0.34911,-0.261836 0.61888,-0.714097 v -3.63396 q -0.26184,-0.325311 -0.55541,-0.507802 -0.29357,-0.182492 -0.68236,-0.182492 z m 12.16311,4.44327 q 0,0.476065 0.12695,0.690294 0.13489,0.214229 0.42846,0.325311 l -0.51574,1.650357 q -0.74583,-0.07141 -1.26157,-0.325311 -0.5078,-0.261835 -0.80137,-0.785507 -0.484,0.579212 -1.23777,0.864851 -0.75377,0.277705 -1.53928,0.277705 -1.30124,0 -2.07881,-0.737901 -0.76964,-0.745834 -0.76964,-1.912192 0,-1.372653 1.07114,-2.118488 1.07908,-0.745835 3.03095,-0.745835 h 1.13462 v -0.317376 q 0,-1.293309 -1.66623,-1.293309 -0.40465,0 -1.0394,0.119016 -0.63476,0.111082 -1.26951,0.325311 l -0.57921,-1.666226 q 0.81724,-0.309442 1.69796,-0.46813 0.88866,-0.158689 1.58688,-0.158689 1.88046,0 2.77705,0.769638 0.90452,0.761704 0.90452,2.205766 z m -3.93547,0.904523 q 0.40466,0 0.84899,-0.238032 0.44432,-0.245967 0.67442,-0.690294 v -1.364719 h -0.61888 q -1.04735,0 -1.53928,0.325311 -0.49193,0.317376 -0.49193,0.93626 0,0.484 0.29357,0.761704 0.30151,0.26977 0.83311,0.26977 z m 13.43262,-6.902937 -2.80878,8.426344 q -0.55541,1.67416 -1.6821,2.546945 -1.11875,0.872786 -3.03888,0.983867 l -0.28564,-1.769373 q 0.83312,-0.103148 1.34092,-0.309442 0.51574,-0.206295 0.82518,-0.563343 0.31738,-0.349114 0.54747,-0.888654 h -0.85691 l -2.6739,-8.426344 h 2.65009 l 1.63449,6.823593 1.77731,-6.823593 z"
         id="text12"
         style="font-weight:bold;font-size:15.4721px;line-height:0.9;font-family:'Fira Code';-inkscape-font-specification:'Fira Code, Bold';font-variant-ligatures:no-contextual;text-align:center;letter-spacing:-0.896937px;text-anchor:middle;stroke-width:2;stroke-linecap:round;stroke-linejoin:bevel;stroke-opacity:0.998262"
         aria-label="birthday" />
      <path
         d="m 461.94369,14.49781 q 0.65062,0 1.06321,0.404655 0.41259,0.404655 0.41259,1.00767 0,0.603015 -0.41259,1.015604 -0.41259,0.404655 -1.06321,0.404655 -0.65856,0 -1.07908,-0.404655 -0.41259,-0.412589 -0.41259,-1.015604 0,-0.603015 0.41259,-1.00767 0.42052,-0.404655 1.07908,-0.404655 z m 1.51547,4.411532 v 6.712511 h 2.14229 v 1.713833 h -7.03782 v -1.713833 h 2.38826 v -4.998678 h -2.30892 v -1.713833 z m 3.47493,8.426344 v -8.426344 h 2.1899 l 0.17456,0.975932 q 0.56334,-0.634752 1.19016,-0.944194 0.62682,-0.309442 1.42819,-0.309442 1.07908,0 1.69796,0.658556 0.61889,0.658556 0.61889,1.856652 v 6.18884 h -2.50728 v -5.466809 q 0,-0.777572 -0.17455,-1.07908 -0.16662,-0.309442 -0.63476,-0.309442 -0.39672,0 -0.7617,0.253901 -0.35705,0.253901 -0.7141,0.706163 v 5.895267 z m 16.20966,-0.491934 q -0.49193,0.317377 -1.19016,0.53954 -0.69823,0.222164 -1.57102,0.222164 -1.65035,0 -2.45173,-0.841048 -0.80137,-0.848982 -0.80137,-2.300979 v -3.824386 h -1.76938 v -1.729701 h 1.76938 v -1.824914 l 2.50727,-0.301508 v 2.126422 h 2.71357 l -0.24597,1.729701 h -2.4676 v 3.824386 q 0,0.626819 0.28564,0.896589 0.28564,0.269769 0.91246,0.269769 0.44432,0 0.80931,-0.103147 0.37291,-0.111082 0.66649,-0.277704 z"
         id="text13"
         style="font-weight:bold;font-size:15.4721px;line-height:0.9;font-family:'Fira Code';-inkscape-font-specification:'Fira Code, Bold';font-variant-ligatures:no-contextual;text-align:center;letter-spacing:-0.896937px;text-anchor:middle;fill:#64717e;stroke-width:2;stroke-linecap:round;stroke-linejoin:bevel;stroke-opacity:0.998262"
         aria-label="int" />
      <path
         d="m 457.27065,44.121363 q -0.49193,0.317376 -1.19016,0.53954 -0.69823,0.222163 -1.57102,0.222163 -1.65035,0 -2.45173,-0.841047 -0.80137,-0.848982 -0.80137,-2.300979 v -3.824386 h -1.76938 v -1.729701 h 1.76938 v -1.824915 l 2.50727,-0.301507 v 2.126422 h 2.71357 l -0.24597,1.729701 h -2.4676 v 3.824386 q 0,0.626818 0.28564,0.896588 0.28564,0.26977 0.91246,0.26977 0.44432,0 0.80931,-0.103147 0.37291,-0.111082 0.66649,-0.277704 z m 3.21309,-2.991273 q 0.12695,1.031474 0.67443,1.483735 0.54747,0.444327 1.34885,0.444327 0.57921,0 1.11875,-0.190426 0.53954,-0.190426 1.03941,-0.507802 l 1.00767,1.364719 q -0.59508,0.507802 -1.44406,0.833113 -0.84105,0.32531 -1.92013,0.32531 -1.44406,0 -2.42,-0.571277 -0.97593,-0.579212 -1.46786,-1.586882 -0.49194,-1.00767 -0.49194,-2.316848 0,-1.245702 0.47607,-2.261307 0.47606,-1.023539 1.38852,-1.626554 0.92039,-0.61095 2.24544,-0.61095 1.20603,0 2.08675,0.515737 0.88865,0.515737 1.37265,1.483735 0.49193,0.967998 0.49193,2.324782 0,0.214229 -0.0159,0.460196 -0.008,0.245966 -0.0317,0.436392 z m 1.55515,-3.538747 q -0.67443,0 -1.08702,0.483999 -0.41259,0.483999 -0.49986,1.54721 h 3.09442 q -0.008,-0.920391 -0.35705,-1.4758 -0.34912,-0.555409 -1.15049,-0.555409 z m 6.84705,7.021954 h -2.71357 l 2.88813,-4.427401 -2.61836,-3.998943 h 2.80878 l 1.34885,2.697699 1.30125,-2.697699 h 2.66596 l -2.47554,3.90373 2.904,4.522614 h -2.84052 l -1.66623,-3.149961 z m 14.2578,-0.491934 q -0.49194,0.317376 -1.19017,0.53954 -0.69822,0.222163 -1.57101,0.222163 -1.65036,0 -2.45173,-0.841047 -0.80138,-0.848982 -0.80138,-2.300979 v -3.824386 h -1.76937 v -1.729701 h 1.76937 v -1.824915 l 2.50728,-0.301507 v 2.126422 h 2.71357 l -0.24597,1.729701 h -2.4676 v 3.824386 q 0,0.626818 0.28564,0.896588 0.28563,0.26977 0.91245,0.26977 0.44433,0 0.80931,-0.103147 0.37292,-0.111082 0.66649,-0.277704 z"
         id="text14"
         style="font-weight:bold;font-size:15.4721px;line-height:0.9;font-family:'Fira Code';-inkscape-font-specification:'Fira Code, Bold';font-variant-ligatures:no-contextual;text-align:center;letter-spacing:-0.896937px;text-anchor:middle;fill:#64717e;stroke-width:2;stroke-linecap:round;stroke-linejoin:bevel;stroke-opacity:0.998262"
         aria-label="text" />
      <path
         d="m 457.27065,63.017592 q -0.49193,0.317376 -1.19016,0.53954 -0.69823,0.222163 -1.57102,0.222163 -1.65035,0 -2.45173,-0.841047 -0.80137,-0.848982 -0.80137,-2.300979 v -3.824386 h -1.76938 v -1.729702 h 1.76938 v -1.824914 l 2.50727,-0.301508 v 2.126422 h 2.71357 l -0.24597,1.729702 h -2.4676 v 3.824386 q 0,0.626818 0.28564,0.896588 0.28564,0.26977 0.91246,0.26977 0.44432,0 0.80931,-0.103147 0.37291,-0.111082 0.66649,-0.277705 z m 3.21309,-2.991273 q 0.12695,1.031473 0.67443,1.483735 0.54747,0.444327 1.34885,0.444327 0.57921,0 1.11875,-0.190426 0.53954,-0.190426 1.03941,-0.507802 l 1.00767,1.364718 q -0.59508,0.507803 -1.44406,0.833113 -0.84105,0.325311 -1.92013,0.325311 -1.44406,0 -2.42,-0.571277 -0.97593,-0.579212 -1.46786,-1.586882 -0.49194,-1.00767 -0.49194,-2.316848 0,-1.245703 0.47607,-2.261307 0.47606,-1.023539 1.38852,-1.626554 0.92039,-0.61095 2.24544,-0.61095 1.20603,0 2.08675,0.515737 0.88865,0.515736 1.37265,1.483735 0.49193,0.967998 0.49193,2.324782 0,0.214229 -0.0159,0.460196 -0.008,0.245966 -0.0317,0.436392 z m 1.55515,-3.538747 q -0.67443,0 -1.08702,0.483999 -0.41259,0.483999 -0.49986,1.54721 h 3.09442 q -0.008,-0.920391 -0.35705,-1.4758 -0.34912,-0.555409 -1.15049,-0.555409 z m 6.84705,7.021953 h -2.71357 l 2.88813,-4.427401 -2.61836,-3.998943 h 2.80878 l 1.34885,2.6977 1.30125,-2.6977 h 2.66596 l -2.47554,3.90373 2.904,4.522614 h -2.84052 l -1.66623,-3.149961 z m 14.2578,-0.491933 q -0.49194,0.317376 -1.19017,0.53954 -0.69822,0.222163 -1.57101,0.222163 -1.65036,0 -2.45173,-0.841047 -0.80138,-0.848982 -0.80138,-2.300979 v -3.824386 h -1.76937 v -1.729702 h 1.76937 v -1.824914 l 2.50728,-0.301508 v 2.126422 h 2.71357 l -0.24597,1.729702 h -2.4676 v 3.824386 q 0,0.626818 0.28564,0.896588 0.28563,0.26977 0.91245,0.26977 0.44433,0 0.80931,-0.103147 0.37292,-0.111082 0.66649,-0.277705 z"
         id="text15"
         style="font-weight:bold;font-size:15.4721px;line-height:0.9;font-family:'Fira Code';-inkscape-font-specification:'Fira Code, Bold';font-variant-ligatures:no-contextual;text-align:center;letter-spacing:-0.896937px;text-anchor:middle;fill:#64717e;stroke-width:2;stroke-linecap:round;stroke-linejoin:bevel;stroke-opacity:0.998262"
         aria-label="text" />
      <path
         d="m 454.38252,71.432463 2.50728,0.261836 v 11.774665 h -2.22164 l -0.12695,-0.928326 q -0.34911,0.491933 -0.92833,0.848982 -0.57921,0.349114 -1.40439,0.349114 -1.04734,0 -1.73763,-0.563344 -0.68236,-0.563343 -1.02354,-1.571013 -0.33325,-1.015604 -0.33325,-2.372389 0,-1.301243 0.40466,-2.308913 0.40465,-1.00767 1.15842,-1.578948 0.75377,-0.579212 1.79318,-0.579212 1.13462,0 1.91219,0.777573 z m -1.23777,5.165301 q -0.65062,0 -1.04734,0.618884 -0.39672,0.61095 -0.39672,2.031209 0,1.039408 0.16662,1.61862 0.16663,0.571278 0.4602,0.801375 0.29357,0.230098 0.67442,0.230098 0.42053,0 0.76171,-0.261835 0.34911,-0.261836 0.61888,-0.714097 v -3.63396 q -0.26183,-0.325311 -0.55541,-0.507802 -0.29357,-0.182492 -0.68236,-0.182492 z m 12.16311,4.44327 q 0,0.476065 0.12695,0.690294 0.13489,0.214229 0.42846,0.325311 l -0.51573,1.650357 q -0.74584,-0.07141 -1.26158,-0.325311 -0.5078,-0.261835 -0.80137,-0.785507 -0.484,0.579212 -1.23777,0.864851 -0.75377,0.277705 -1.53928,0.277705 -1.30124,0 -2.07881,-0.737901 -0.76964,-0.745834 -0.76964,-1.912192 0,-1.372653 1.07115,-2.118488 1.07908,-0.745835 3.03094,-0.745835 h 1.13462 v -0.317376 q 0,-1.293309 -1.66622,-1.293309 -0.40466,0 -1.03941,0.119016 -0.63475,0.111082 -1.26951,0.325311 l -0.57921,-1.666226 q 0.81724,-0.309442 1.69796,-0.46813 0.88866,-0.158689 1.58689,-0.158689 1.88045,0 2.77704,0.769638 0.90452,0.761704 0.90452,2.205766 z m -3.93546,0.904523 q 0.40465,0 0.84898,-0.238032 0.44432,-0.245967 0.67442,-0.690294 v -1.364719 h -0.61888 q -1.04734,0 -1.53928,0.325311 -0.49193,0.317376 -0.49193,0.93626 0,0.484 0.29357,0.761704 0.30151,0.26977 0.83312,0.26977 z m 13.05176,1.031473 q -0.49194,0.317377 -1.19016,0.53954 -0.69823,0.222164 -1.57102,0.222164 -1.65035,0 -2.45173,-0.841048 -0.80137,-0.848982 -0.80137,-2.300979 V 76.772321 H 466.6405 V 75.04262 h 1.76938 v -1.824915 l 2.50727,-0.301507 v 2.126422 h 2.71357 l -0.24597,1.729701 h -2.4676 v 3.824386 q 0,0.626818 0.28564,0.896588 0.28564,0.26977 0.91245,0.26977 0.44433,0 0.80931,-0.103147 0.37292,-0.111082 0.6665,-0.277704 z m 3.21309,-2.991273 q 0.12695,1.031474 0.67443,1.483735 0.54747,0.444327 1.34885,0.444327 0.57921,0 1.11875,-0.190426 0.53954,-0.190426 1.03941,-0.507802 l 1.00767,1.364719 q -0.59508,0.507802 -1.44406,0.833113 -0.84105,0.325311 -1.92013,0.325311 -1.44406,0 -2.42,-0.571278 -0.97593,-0.579212 -1.46786,-1.586882 -0.49194,-1.00767 -0.49194,-2.316848 0,-1.245702 0.47607,-2.261307 0.47606,-1.023539 1.38852,-1.626554 0.92039,-0.61095 2.24544,-0.61095 1.20603,0 2.08675,0.515737 0.88865,0.515737 1.37265,1.483735 0.49193,0.967998 0.49193,2.324782 0,0.214229 -0.0159,0.460196 -0.008,0.245967 -0.0317,0.436392 z m 1.55515,-3.538747 q -0.67443,0 -1.08702,0.483999 -0.41259,0.483999 -0.49986,1.54721 h 3.09442 q -0.008,-0.920391 -0.35705,-1.4758 -0.34912,-0.555409 -1.15049,-0.555409 z"
         id="text16"
         style="font-weight:bold;font-size:15.4721px;line-height:0.9;font-family:'Fira Code';-inkscape-font-specification:'Fira Code, Bold';font-variant-ligatures:no-contextual;text-align:center;letter-spacing:-0.896937px;text-anchor:middle;fill:#64717e;stroke-width:2;stroke-linecap:round;stroke-linejoin:bevel;stroke-opacity:0.998262"
         aria-label="date" />
    </g>
    <g
       id="g40"
       transform="matrix(0.58931414,0,0,0.54212316,133.22278,1.4336376)"
       style="filter:url(#filter94)">
      <rect
         style="fill:url(#swatch5);stroke:url(#swatch7);stroke-width:2;stroke-linecap:round;stroke-linejoin:bevel;stroke-dasharray:none;stroke-opacity:0.998262"
         id="rect16"
         width="212.65164"
         height="91.107986"
         x="564.15576"
         y="-34.592754"
         ry="6.4847207" />
      <rect
         style="fill:#fff0dd;fill-opacity:1;stroke:url(#swatch7);stroke-width:1.99765;stroke-linecap:round;stroke-linejoin:round;stroke-dasharray:none;stroke-opacity:0.998262"
         id="rect45-2"
         width="212.55287"
         height="29.299906"
         x="564.22687"
         y="-25.523888"
         ry="0" />
      <path
         id="path16"
         style="fill:url(#swatch6);stroke:url(#swatch7);stroke-width:2;stroke-linecap:round;stroke-linejoin:bevel;stroke-dasharray:none;stroke-opacity:0.998262"
         d="m 573.5494,-34.591668 c -8.47538,0 -9.13341,2.809 -9.32426,9.066075 h 212.55342 c 0,-5.75082 -1.38185,-9.066075 -9.32374,-9.066075 z"
         sodipodi:nodetypes="sccss" />
      <path
         d="m 620.71014,-7.86572 q 0.15649,1.2714733 0.83135,1.8289654 0.67486,0.5477116 1.6627,0.5477116 0.71398,0 1.37906,-0.2347335 0.66507,-0.2347336 1.28125,-0.6259561 l 1.24213,1.682257 q -0.73354,0.6259561 -1.78006,1.0269592 -1.03674,0.4010031 -2.3669,0.4010031 -1.78006,0 -2.98307,-0.7042006 -1.20301,-0.7139812 -1.8094,-1.9561128 -0.6064,-1.2421316 -0.6064,-2.8559247 0,-1.5355486 0.58683,-2.7874606 0.58684,-1.261693 1.7116,-2.005016 1.13455,-0.753103 2.7679,-0.753103 1.48665,0 2.57229,0.635737 1.09542,0.635736 1.69204,1.828965 0.60639,1.193229 0.60639,2.8657052 0,0.2640753 -0.0196,0.5672727 -0.01,0.3031975 -0.0391,0.5379311 z m 1.91699,-4.362132 q -0.83134,0 -1.33993,0.596615 -0.50859,0.596614 -0.61618,1.9072098 h 3.81442 q -0.01,-1.1345458 -0.44013,-1.8191848 -0.43034,-0.68464 -1.41818,-0.68464 z m 6.03419,8.6557995 V -13.959011 h 2.69944 l 0.21517,1.203009 q 0.69442,-0.782445 1.46709,-1.163887 0.77266,-0.381442 1.7605,-0.381442 1.33015,0 2.09304,0.811787 0.76288,0.811786 0.76288,2.288652 v 7.6288395 h -3.09066 v -6.7388085 q 0,-0.958495 -0.21517,-1.330157 -0.20539,-0.381442 -0.78244,-0.381442 -0.48903,0 -0.93894,0.312978 -0.44012,0.312978 -0.88025,0.870471 v 7.2669585 z m 10.72886,0 V -5.645532 h 1.36928 v -6.259561 h -1.36928 v -2.053918 h 3.7264 l 0.56727,2.337554 q 0.55749,-1.339937 1.41818,-1.995235 0.87047,-0.655297 2.12239,-0.655297 0.52815,0 0.93893,0.08803 0.41078,0.07824 0.77266,0.224953 l -0.57705,4.34257 h -1.93655 v -1.916991 q -0.88025,0.156489 -1.54533,0.958496 -0.66508,0.7922254 -1.02696,1.9561125 v 2.9732915 h 2.05392 v 2.0734795 z m 15.03231,-10.7292785 q 1.60401,0 2.72878,0.684639 1.12476,0.68464 1.72138,1.926771 0.59661,1.232352 0.59661,2.8950474 0,2.60163 -1.33015,4.0784951 -1.33016,1.4768652 -3.71662,1.4768652 -2.38646,0 -3.71661,-1.457304 -1.33016,-1.4573041 -1.33016,-4.0784952 0,-1.6529155 0.59661,-2.8950465 0.6064,-1.242132 1.73116,-1.936552 1.13455,-0.69442 2.719,-0.69442 z m 0,2.278871 q -0.94871,0 -1.4084,0.782445 -0.44991,0.772665 -0.44991,2.4647025 0,1.7213793 0.44991,2.4940438 0.45969,0.7726646 1.4084,0.7726646 0.94872,0 1.39862,-0.7726646 0.45969,-0.7726645 0.45969,-2.5136049 0,-1.6822574 -0.45969,-2.4549214 -0.4499,-0.772665 -1.39862,-0.772665 z m 11.55043,-6.063949 v 11.2476482 q 0,0.6259561 0.3521,0.8998118 0.36188,0.2640753 0.98784,0.2640753 0.401,0 0.77266,-0.088025 0.37166,-0.097806 0.69442,-0.224953 l 0.74332,2.063699 q -0.52815,0.2738558 -1.27147,0.4792477 -0.74332,0.2053918 -1.73116,0.2053918 -1.87787,0 -2.75812,-1.075862 -0.88025,-1.0856426 -0.88025,-2.9048275 v -8.7536053 h -3.06131 v -2.112601 z m 10.63105,0 v 11.2476482 q 0,0.6259561 0.3521,0.8998118 0.36189,0.2640753 0.98784,0.2640753 0.401,0 0.77267,-0.088025 0.37166,-0.097806 0.69442,-0.224953 l 0.74332,2.063699 q -0.52815,0.2738558 -1.27147,0.4792477 -0.74333,0.2053918 -1.73116,0.2053918 -1.87787,0 -2.75812,-1.075862 -0.88025,-1.0856426 -0.88025,-2.9048275 V -15.973808 H 670.452 v -2.112601 z m 12.89037,3.785078 q 1.1052,0 1.63335,0.723762 0.53793,0.713981 0.53793,2.317993 v 7.6875235 h -2.65053 v -7.3354225 q 0,-0.547712 -0.10759,-0.772665 -0.0978,-0.224953 -0.41078,-0.224953 -0.24451,0 -0.50859,0.146709 -0.25429,0.136927 -0.56727,0.52815 v 7.6581815 h -2.17129 v -7.3354225 q 0,-0.547712 -0.10758,-0.772665 -0.0978,-0.224953 -0.41079,-0.224953 -0.24451,0 -0.50859,0.146709 -0.25429,0.136927 -0.56727,0.52815 v 7.6581815 h -2.68965 V -13.959011 h 2.26909 l 0.20539,1.007398 q 0.48903,-0.665079 0.98784,-1.007398 0.4988,-0.34232 1.18344,-0.34232 0.58684,0 0.99762,0.303197 0.42057,0.293417 0.59662,0.929154 0.46946,-0.547712 1.03674,-0.890031 0.56727,-0.34232 1.25191,-0.34232 z m 5.63318,6.435611 q 0.15649,1.2714733 0.83135,1.8289654 0.67486,0.5477116 1.6627,0.5477116 0.71398,0 1.37906,-0.2347335 0.66508,-0.2347336 1.28125,-0.6259561 l 1.24213,1.682257 q -0.73354,0.6259561 -1.78006,1.0269592 -1.03674,0.4010031 -2.3669,0.4010031 -1.78006,0 -2.98307,-0.7042006 -1.20301,-0.7139812 -1.8094,-1.9561128 -0.6064,-1.2421316 -0.6064,-2.8559247 0,-1.5355486 0.58684,-2.7874606 0.58683,-1.261693 1.71159,-2.005016 1.13455,-0.753103 2.7679,-0.753103 1.48665,0 2.57229,0.635737 1.09543,0.635736 1.69204,1.828965 0.6064,1.193229 0.6064,2.8657052 0,0.2640753 -0.0196,0.5672727 -0.01,0.3031975 -0.0391,0.5379311 z m 1.91699,-4.362132 q -0.83134,0 -1.33993,0.596615 -0.50859,0.596614 -0.61618,1.9072098 h 3.81442 q -0.01,-1.1345458 -0.44012,-1.8191848 -0.43035,-0.68464 -1.41819,-0.68464 z m 6.0342,8.6557995 V -13.959011 h 2.69943 l 0.21518,1.203009 q 0.69442,-0.782445 1.46708,-1.163887 0.77266,-0.381442 1.7605,-0.381442 1.33016,0 2.09304,0.811787 0.76289,0.811786 0.76289,2.288652 v 7.6288395 h -3.09066 v -6.7388085 q 0,-0.958495 -0.21517,-1.330157 -0.2054,-0.381442 -0.78245,-0.381442 -0.48903,0 -0.93893,0.312978 -0.44013,0.312978 -0.88025,0.870471 v 7.2669585 z m 19.98127,-0.6063949 q -0.6064,0.3912225 -1.46709,0.6650783 -0.86069,0.2738558 -1.93655,0.2738558 -2.03436,0 -3.02219,-1.0367398 -0.98784,-1.0465203 -0.98784,-2.8363635 v -4.7142314 h -2.18107 v -2.132163 h 2.18107 v -2.24953 l 3.09066,-0.371662 v 2.621192 h 3.34495 l -0.3032,2.132163 h -3.04175 v 4.7142314 q 0,0.7726645 0.3521,1.1052037 0.3521,0.3325392 1.12476,0.3325392 0.54771,0 0.99762,-0.1271474 0.45969,-0.1369279 0.82157,-0.3423197 z"
         id="text17"
         style="font-weight:bold;font-size:19.0721px;line-height:0.9;font-family:'Fira Code';-inkscape-font-specification:'Fira Code, Bold';font-variant-ligatures:no-contextual;text-align:center;letter-spacing:-1.10563px;text-anchor:middle;stroke-width:2;stroke-linecap:round;stroke-linejoin:bevel;stroke-opacity:0.998262"
         aria-label="enrollment" />
      <path
         d="m 578.07691,15.299185 q 0.9204,0 1.62656,0.150754 0.70616,0.142819 1.26157,0.380852 l -0.69029,1.634488 q -0.4364,-0.166622 -0.89659,-0.238032 -0.4602,-0.07934 -0.91246,-0.07934 -0.74583,0 -1.07114,0.26977 -0.31738,0.26977 -0.31738,0.896588 v 1.126686 h 2.74531 l -0.27771,1.737636 h -2.4676 v 6.157103 h -2.49141 v -6.157103 h -1.76937 v -1.737636 h 1.76937 v -1.221899 q 0,-0.833113 0.39672,-1.491669 0.39673,-0.658556 1.1743,-1.039408 0.77757,-0.388786 1.92012,-0.388786 z m 3.34005,12.036501 v -1.682095 h 1.11082 v -5.078023 h -1.11082 v -1.666226 h 3.02301 l 0.4602,1.896324 q 0.45226,-1.087014 1.15049,-1.61862 0.70616,-0.531605 1.72176,-0.531605 0.42846,0 0.76171,0.07141 0.33324,0.06348 0.62681,0.182492 l -0.46813,3.522878 h -1.57101 v -1.555144 q -0.7141,0.12695 -1.25364,0.777572 -0.53954,0.642687 -0.83311,1.586882 v 2.412061 h 1.66623 v 1.682095 z M 593.59594,14.49781 q 0.65062,0 1.06321,0.404655 0.41259,0.404655 0.41259,1.00767 0,0.603015 -0.41259,1.015604 -0.41259,0.404655 -1.06321,0.404655 -0.65856,0 -1.07908,-0.404655 -0.41259,-0.412589 -0.41259,-1.015604 0,-0.603015 0.41259,-1.00767 0.42052,-0.404655 1.07908,-0.404655 z m 1.51547,4.411532 v 6.712511 h 2.14229 v 1.713833 h -7.03782 v -1.713833 h 2.38826 v -4.998678 h -2.30892 v -1.713833 z m 5.64896,4.943138 q 0.12695,1.031473 0.67442,1.483734 0.54748,0.444327 1.34885,0.444327 0.57922,0 1.11876,-0.190426 0.53954,-0.190425 1.0394,-0.507802 l 1.00767,1.364719 q -0.59508,0.507802 -1.44406,0.833113 -0.84105,0.325311 -1.92013,0.325311 -1.44406,0 -2.41999,-0.571278 -0.97593,-0.579212 -1.46787,-1.586882 -0.49193,-1.00767 -0.49193,-2.316848 0,-1.245702 0.47606,-2.261307 0.47607,-1.023539 1.38853,-1.626554 0.92039,-0.610949 2.24543,-0.610949 1.20603,0 2.08675,0.515736 0.88866,0.515737 1.37266,1.483735 0.49193,0.967998 0.49193,2.324782 0,0.214229 -0.0159,0.460196 -0.008,0.245967 -0.0317,0.436393 z m 1.55514,-3.538747 q -0.67442,0 -1.08701,0.483999 -0.41259,0.483999 -0.49987,1.54721 h 3.09442 q -0.008,-0.920392 -0.35705,-1.475801 -0.34911,-0.555408 -1.15049,-0.555408 z m 4.89519,7.021953 v -8.426344 h 2.1899 l 0.17456,0.975932 q 0.56334,-0.634752 1.19016,-0.944194 0.62682,-0.309442 1.42819,-0.309442 1.07908,0 1.69796,0.658556 0.61889,0.658556 0.61889,1.856652 v 6.18884 h -2.50727 v -5.466809 q 0,-0.777572 -0.17456,-1.07908 -0.16662,-0.309442 -0.63475,-0.309442 -0.39673,0 -0.76171,0.253901 -0.35705,0.253901 -0.71409,0.706163 v 5.895267 z m 13.41675,-12.036501 2.50727,0.261836 v 11.774665 h -2.22163 l -0.12695,-0.928326 q -0.34912,0.491933 -0.92833,0.848982 -0.57921,0.349114 -1.40439,0.349114 -1.04734,0 -1.73764,-0.563343 -0.68236,-0.563344 -1.02354,-1.571014 -0.33324,-1.015604 -0.33324,-2.372388 0,-1.301244 0.40465,-2.308914 0.40466,-1.00767 1.15843,-1.578948 0.75377,-0.579211 1.79318,-0.579211 1.13462,0 1.91219,0.777572 z m -1.23777,5.165301 q -0.65062,0 -1.04734,0.618884 -0.39672,0.61095 -0.39672,2.031209 0,1.039408 0.16662,1.61862 0.16662,0.571278 0.4602,0.801376 0.29357,0.230097 0.67442,0.230097 0.42052,0 0.7617,-0.261835 0.34912,-0.261836 0.61889,-0.714097 v -3.63396 q -0.26184,-0.325311 -0.55541,-0.507802 -0.29357,-0.182492 -0.68236,-0.182492 z m 4.75237,9.8228 v -1.967733 h 7.93441 v 1.967733 z m 12.5757,-15.789476 q 0.65062,0 1.06321,0.404655 0.41259,0.404655 0.41259,1.00767 0,0.603015 -0.41259,1.015604 -0.41259,0.404655 -1.06321,0.404655 -0.65856,0 -1.07908,-0.404655 -0.41259,-0.412589 -0.41259,-1.015604 0,-0.603015 0.41259,-1.00767 0.42052,-0.404655 1.07908,-0.404655 z m 1.51547,4.411532 v 6.712511 h 2.14229 v 1.713833 h -7.03782 v -1.713833 h 2.38826 v -4.998678 h -2.30891 v -1.713833 z m 8.26731,-3.610157 2.50728,0.261836 v 11.774665 h -2.22164 l -0.12695,-0.928326 q -0.34911,0.491933 -0.92832,0.848982 -0.57922,0.349114 -1.4044,0.349114 -1.04734,0 -1.73763,-0.563343 -0.68236,-0.563344 -1.02354,-1.571014 -0.33325,-1.015604 -0.33325,-2.372388 0,-1.301244 0.40466,-2.308914 0.40465,-1.00767 1.15842,-1.578948 0.75377,-0.579211 1.79318,-0.579211 1.13462,0 1.91219,0.777572 z m -1.23776,5.165301 q -0.65063,0 -1.04735,0.618884 -0.39672,0.61095 -0.39672,2.031209 0,1.039408 0.16663,1.61862 0.16662,0.571278 0.46019,0.801376 0.29357,0.230097 0.67443,0.230097 0.42052,0 0.7617,-0.261835 0.34911,-0.261836 0.61888,-0.714097 v -3.63396 q -0.26183,-0.325311 -0.55541,-0.507802 -0.29357,-0.182492 -0.68235,-0.182492 z"
         id="text18"
         style="font-weight:bold;font-size:15.4721px;line-height:0.9;font-family:'Fira Code';-inkscape-font-specification:'Fira Code, Bold';font-variant-ligatures:no-contextual;text-align:center;letter-spacing:-0.896937px;text-anchor:middle;stroke-width:2;stroke-linecap:round;stroke-linejoin:bevel;stroke-opacity:0.998262"
         aria-label="friend_id" />
      <path
         d="m 577.30727,43.626865 q 0.51573,0 0.96799,-0.19836 0.4602,-0.206294 0.91246,-0.523671 l 1.11875,1.586882 q -0.55541,0.476065 -1.35678,0.793441 -0.79344,0.317377 -1.77731,0.317377 -1.35678,0 -2.33272,-0.555409 -0.97593,-0.563343 -1.4996,-1.555145 -0.52367,-0.999735 -0.52367,-2.316847 0,-1.317112 0.53161,-2.340651 0.53954,-1.031474 1.5234,-1.61862 0.9918,-0.587147 2.34859,-0.587147 0.96006,0 1.7059,0.26977 0.75376,0.261836 1.38058,0.785507 l -1.08701,1.507538 q -0.42846,-0.301508 -0.90452,-0.46813 -0.47607,-0.166623 -0.99181,-0.166623 -0.84898,0 -1.37265,0.603015 -0.51573,0.595081 -0.51573,2.015341 0,0.928326 0.24596,1.467866 0.24597,0.531605 0.66649,0.761703 0.42846,0.222163 0.96007,0.222163 z m 8.55295,-10.068766 v 9.124572 q 0,0.507802 0.28564,0.729965 0.29357,0.214229 0.80137,0.214229 0.32531,0 0.62682,-0.07141 0.30151,-0.07934 0.56334,-0.182492 l 0.60302,1.674161 q -0.42846,0.222163 -1.03147,0.388786 -0.60302,0.166623 -1.40439,0.166623 -1.52341,0 -2.23751,-0.872786 -0.7141,-0.880719 -0.7141,-2.356519 V 35.27193 h -2.48347 v -1.713832 z m 11.32206,9.346735 q 0,0.476065 0.12695,0.690294 0.13489,0.214229 0.42846,0.325311 l -0.51574,1.650357 q -0.74583,-0.07141 -1.26157,-0.325311 -0.5078,-0.261835 -0.80137,-0.785506 -0.484,0.579211 -1.23777,0.86485 -0.75377,0.277705 -1.53928,0.277705 -1.30124,0 -2.07881,-0.737901 -0.76964,-0.745834 -0.76964,-1.912192 0,-1.372653 1.07114,-2.118488 1.07908,-0.745835 3.03095,-0.745835 h 1.13462 v -0.317376 q 0,-1.293309 -1.66623,-1.293309 -0.40465,0 -1.0394,0.119016 -0.63476,0.111082 -1.26951,0.325311 l -0.57921,-1.666226 q 0.81724,-0.309442 1.69796,-0.46813 0.88866,-0.158689 1.58688,-0.158689 1.88046,0 2.77705,0.769638 0.90452,0.761704 0.90452,2.205766 z m -3.93547,0.904523 q 0.40466,0 0.84898,-0.238032 0.44433,-0.245967 0.67443,-0.690294 v -1.364719 h -0.61889 q -1.04734,0 -1.53927,0.325311 -0.49193,0.317377 -0.49193,0.936261 0,0.483999 0.29357,0.761703 0.30151,0.26977 0.83311,0.26977 z m 8.84653,0 q 0.62682,0 1.00767,-0.19836 0.38878,-0.198361 0.38878,-0.595081 0,-0.26977 -0.15075,-0.452262 -0.15075,-0.182491 -0.57921,-0.349114 -0.42846,-0.166622 -1.26951,-0.39672 -1.15842,-0.309442 -1.88839,-0.888654 -0.72203,-0.579212 -0.72203,-1.697964 0,-1.126686 0.93626,-1.864586 0.9442,-0.737901 2.72151,-0.737901 1.12668,0 1.95979,0.293574 0.84105,0.285638 1.452,0.729965 l -0.99973,1.475801 q -0.52367,-0.325311 -1.12669,-0.515737 -0.60302,-0.19836 -1.21396,-0.19836 -1.20604,0 -1.20604,0.650621 0,0.21423 0.15076,0.372918 0.15869,0.150754 0.58715,0.317376 0.42845,0.158688 1.25363,0.396721 0.81725,0.230098 1.42026,0.531605 0.61095,0.301508 0.9442,0.80931 0.33324,0.499868 0.33324,1.325047 0,0.920391 -0.54747,1.54721 -0.54748,0.618884 -1.452,0.928326 -0.90452,0.309442 -1.9836,0.309442 -1.2219,0 -2.15816,-0.349114 -0.93626,-0.349114 -1.59482,-0.920392 l 1.26157,-1.412325 q 0.49194,0.380852 1.11082,0.634753 0.62682,0.253901 1.36472,0.253901 z m 8.62436,0 q 0.62682,0 1.00767,-0.19836 0.38879,-0.198361 0.38879,-0.595081 0,-0.26977 -0.15076,-0.452262 -0.15075,-0.182491 -0.57921,-0.349114 -0.42846,-0.166622 -1.26951,-0.39672 -1.15842,-0.309442 -1.88839,-0.888654 -0.72203,-0.579212 -0.72203,-1.697964 0,-1.126686 0.93626,-1.864586 0.9442,-0.737901 2.72151,-0.737901 1.12668,0 1.9598,0.293574 0.84104,0.285638 1.45199,0.729965 l -0.99973,1.475801 q -0.52367,-0.325311 -1.12669,-0.515737 -0.60301,-0.19836 -1.21396,-0.19836 -1.20603,0 -1.20603,0.650621 0,0.21423 0.15075,0.372918 0.15869,0.150754 0.58715,0.317376 0.42845,0.158688 1.25363,0.396721 0.81725,0.230098 1.42026,0.531605 0.61095,0.301508 0.9442,0.80931 0.33324,0.499868 0.33324,1.325047 0,0.920391 -0.54747,1.54721 -0.54748,0.618884 -1.452,0.928326 -0.90452,0.309442 -1.9836,0.309442 -1.2219,0 -2.15816,-0.349114 -0.93626,-0.349114 -1.59482,-0.920392 l 1.26157,-1.412325 q 0.49194,0.380852 1.11082,0.634753 0.62682,0.253901 1.36472,0.253901 z m 4.92693,4.475007 v -1.967733 h 7.93441 v 1.967733 z m 12.5757,-15.789476 q 0.65062,0 1.06321,0.404655 0.41259,0.404655 0.41259,1.00767 0,0.603015 -0.41259,1.015604 -0.41259,0.404655 -1.06321,0.404655 -0.65856,0 -1.07908,-0.404655 -0.41259,-0.412589 -0.41259,-1.015604 0,-0.603015 0.41259,-1.00767 0.42052,-0.404655 1.07908,-0.404655 z m 1.51547,4.411532 v 6.712511 h 2.14229 v 1.713833 h -7.03782 v -1.713833 h 2.38826 v -4.998679 h -2.30892 V 36.90642 Z m 8.26731,-3.610157 2.50728,0.261836 v 11.774665 h -2.22164 l -0.12695,-0.928326 q -0.34911,0.491933 -0.92832,0.848982 -0.57922,0.349114 -1.40439,0.349114 -1.04735,0 -1.73764,-0.563344 -0.68236,-0.563343 -1.02354,-1.571013 -0.33324,-1.015604 -0.33324,-2.372388 0,-1.301244 0.40465,-2.308914 0.40465,-1.00767 1.15842,-1.578948 0.75377,-0.579212 1.79318,-0.579212 1.13462,0 1.91219,0.777573 z m -1.23776,5.165301 q -0.65063,0 -1.04735,0.618884 -0.39672,0.61095 -0.39672,2.031209 0,1.039408 0.16663,1.61862 0.16662,0.571278 0.46019,0.801376 0.29357,0.230097 0.67443,0.230097 0.42052,0 0.7617,-0.261835 0.34911,-0.261836 0.61888,-0.714097 v -3.63396 q -0.26183,-0.325311 -0.55541,-0.507802 -0.29357,-0.182492 -0.68235,-0.182492 z"
         id="text19"
         style="font-weight:bold;font-size:15.4721px;line-height:0.9;font-family:'Fira Code';-inkscape-font-specification:'Fira Code, Bold';font-variant-ligatures:no-contextual;text-align:center;letter-spacing:-0.896937px;text-anchor:middle;stroke-width:2;stroke-linecap:round;stroke-linejoin:bevel;stroke-opacity:0.998262"
         aria-label="class_id" />
      <path
         d="m 747.60458,14.49781 q 0.65062,0 1.06321,0.404655 0.41259,0.404655 0.41259,1.00767 0,0.603015 -0.41259,1.015604 -0.41259,0.404655 -1.06321,0.404655 -0.65856,0 -1.07908,-0.404655 -0.41259,-0.412589 -0.41259,-1.015604 0,-0.603015 0.41259,-1.00767 0.42052,-0.404655 1.07908,-0.404655 z m 1.51547,4.411532 v 6.712511 h 2.14229 v 1.713833 h -7.03782 v -1.713833 h 2.38826 v -4.998678 h -2.30892 v -1.713833 z m 3.47493,8.426344 v -8.426344 h 2.1899 l 0.17455,0.975932 q 0.56335,-0.634752 1.19017,-0.944194 0.62681,-0.309442 1.42819,-0.309442 1.07908,0 1.69796,0.658556 0.61889,0.658556 0.61889,1.856652 v 6.18884 h -2.50728 v -5.466809 q 0,-0.777572 -0.17455,-1.07908 -0.16663,-0.309442 -0.63476,-0.309442 -0.39672,0 -0.7617,0.253901 -0.35705,0.253901 -0.7141,0.706163 v 5.895267 z m 16.20966,-0.491934 q -0.49194,0.317377 -1.19016,0.53954 -0.69823,0.222164 -1.57102,0.222164 -1.65035,0 -2.45173,-0.841048 -0.80138,-0.848982 -0.80138,-2.300979 v -3.824386 h -1.76937 v -1.729701 h 1.76937 v -1.824914 l 2.50728,-0.301508 v 2.126422 h 2.71357 l -0.24597,1.729701 h -2.4676 v 3.824386 q 0,0.626819 0.28564,0.896589 0.28564,0.269769 0.91245,0.269769 0.44433,0 0.80931,-0.103147 0.37292,-0.111082 0.66649,-0.277704 z"
         id="text22"
         style="font-weight:bold;font-size:15.4721px;line-height:0.9;font-family:'Fira Code';-inkscape-font-specification:'Fira Code, Bold';font-variant-ligatures:no-contextual;text-align:center;letter-spacing:-0.896937px;text-anchor:middle;fill:#64717e;stroke-width:2;stroke-linecap:round;stroke-linejoin:bevel;stroke-opacity:0.998262"
         aria-label="int" />
      <path
         d="m 747.60458,32.494888 q 0.65062,0 1.06321,0.404655 0.41259,0.404655 0.41259,1.00767 0,0.603015 -0.41259,1.015604 -0.41259,0.404655 -1.06321,0.404655 -0.65856,0 -1.07908,-0.404655 -0.41259,-0.412589 -0.41259,-1.015604 0,-0.603015 0.41259,-1.00767 0.42052,-0.404655 1.07908,-0.404655 z m 1.51547,4.411532 v 6.712511 h 2.14229 v 1.713833 h -7.03782 v -1.713833 h 2.38826 v -4.998679 h -2.30892 V 36.90642 Z m 3.47493,8.426344 V 36.90642 h 2.1899 l 0.17455,0.975932 q 0.56335,-0.634753 1.19017,-0.944195 0.62681,-0.309442 1.42819,-0.309442 1.07908,0 1.69796,0.658557 0.61889,0.658556 0.61889,1.856652 v 6.18884 h -2.50728 v -5.466809 q 0,-0.777572 -0.17455,-1.07908 -0.16663,-0.309442 -0.63476,-0.309442 -0.39672,0 -0.7617,0.253901 -0.35705,0.253901 -0.7141,0.706163 v 5.895267 z m 16.20966,-0.491934 q -0.49194,0.317377 -1.19016,0.53954 -0.69823,0.222164 -1.57102,0.222164 -1.65035,0 -2.45173,-0.841048 -0.80138,-0.848982 -0.80138,-2.300979 v -3.824386 h -1.76937 V 36.90642 h 1.76937 v -1.824915 l 2.50728,-0.301507 v 2.126422 h 2.71357 l -0.24597,1.729701 h -2.4676 v 3.824386 q 0,0.626819 0.28564,0.896588 0.28564,0.26977 0.91245,0.26977 0.44433,0 0.80931,-0.103147 0.37292,-0.111082 0.66649,-0.277704 z"
         id="text23"
         style="font-weight:bold;font-size:15.4721px;line-height:0.9;font-family:'Fira Code';-inkscape-font-specification:'Fira Code, Bold';font-variant-ligatures:no-contextual;text-align:center;letter-spacing:-0.896937px;text-anchor:middle;fill:#64717e;stroke-width:2;stroke-linecap:round;stroke-linejoin:bevel;stroke-opacity:0.998262"
         aria-label="int" />
    </g>
    <g
       id="g41"
       transform="matrix(0.58931414,0,0,0.54212316,134.55204,-9.4950086)"
       style="filter:url(#filter96)">
      <rect
         style="fill:url(#swatch5);stroke:url(#swatch7);stroke-width:2;stroke-linecap:round;stroke-linejoin:bevel;stroke-dasharray:none;stroke-opacity:0.998262"
         id="rect30"
         width="212.65164"
         height="131.42593"
         x="845.28662"
         y="-34.592754"
         ry="9.3543987" />
      <rect
         style="fill:#fff0dd;fill-opacity:1;stroke:url(#swatch7);stroke-width:1.99618;stroke-linecap:round;stroke-linejoin:round;stroke-dasharray:none;stroke-opacity:0.998262"
         id="rect45-0"
         width="212.2281"
         height="29.301382"
         x="845.28473"
         y="-25.523573"
         ry="0" />
      <path
         id="path30"
         style="fill:url(#swatch1);stroke:url(#swatch7);stroke-width:2;stroke-linecap:round;stroke-linejoin:bevel;stroke-dasharray:none;stroke-opacity:0.998262"
         d="m 854.64125,-34.592721 c -5.08421,0 -9.17216,4.022622 -9.32605,9.068181 h 212.5943 c -0.154,-5.045538 -4.2414,-9.068181 -9.3256,-9.068181 z" />
      <path
         d="m 920.61423,-5.6748737 q 0.63574,0 1.19323,-0.2445141 0.56727,-0.2542947 1.12476,-0.6455172 l 1.37906,1.9561127 q -0.68464,0.5868339 -1.67247,0.9780564 -0.97806,0.3912226 -2.19085,0.3912226 -1.67248,0 -2.87549,-0.6846395 -1.20301,-0.69442 -1.84852,-1.9169905 -0.64552,-1.2323511 -0.64552,-2.8559247 0,-1.623574 0.6553,-2.885266 0.66508,-1.271474 1.87787,-1.995235 1.22257,-0.723762 2.89504,-0.723762 1.18345,0 2.10282,0.332539 0.92916,0.322759 1.70182,0.968276 l -1.33994,1.858307 q -0.52815,-0.371661 -1.11498,-0.577053 -0.58683,-0.205392 -1.22257,-0.205392 -1.04652,0 -1.69204,0.743323 -0.63573,0.733542 -0.63573,2.484263 0,1.144326 0.30319,1.8094043 0.3032,0.6552978 0.82157,0.9389342 0.52815,0.2738558 1.18345,0.2738558 z m 10.54303,-12.4115353 v 11.2476482 q 0,0.6259561 0.3521,0.8998118 0.36188,0.2640753 0.98784,0.2640753 0.401,0 0.77266,-0.088025 0.37166,-0.097806 0.69442,-0.224953 l 0.74332,2.063699 q -0.52815,0.2738558 -1.27147,0.4792477 -0.74332,0.2053918 -1.73116,0.2053918 -1.87787,0 -2.75812,-1.075862 -0.88025,-1.0856426 -0.88025,-2.9048275 v -8.7536053 h -3.06132 v -2.112601 z m 13.95645,11.521504 q 0,0.5868338 0.15648,0.850909 0.16627,0.2640752 0.52815,0.4010031 l -0.63573,2.0343573 q -0.91938,-0.088025 -1.55511,-0.4010031 -0.62596,-0.3227586 -0.98784,-0.9682758 -0.59661,0.7139812 -1.52577,1.0660815 -0.92915,0.3423197 -1.89743,0.3423197 -1.60401,0 -2.5625,-0.9095925 -0.94872,-0.919373 -0.94872,-2.3571159 0,-1.6920375 1.32038,-2.6114105 1.33015,-0.9193728 3.73617,-0.9193728 h 1.39862 v -0.391223 q 0,-1.594232 -2.05391,-1.594232 -0.49881,0 -1.28126,0.146709 -0.78244,0.136928 -1.56489,0.401003 l -0.71398,-2.053919 q 1.0074,-0.381442 2.09304,-0.577053 1.09542,-0.195611 1.95611,-0.195611 2.318,0 3.4232,0.948715 1.11499,0.938934 1.11499,2.718996 z m -4.85116,1.1149842 q 0.4988,0 1.04652,-0.2934169 0.54771,-0.3031975 0.83134,-0.850909 v -1.682257 h -0.76288 q -1.29103,0 -1.89743,0.4010031 -0.60639,0.3912225 -0.60639,1.1541065 0,0.5966144 0.36188,0.9389342 0.37166,0.3325391 1.02696,0.3325391 z m 10.90491,0 q 0.77266,0 1.24213,-0.2445141 0.47924,-0.2445141 0.47924,-0.7335422 0,-0.3325392 -0.18583,-0.5574922 -0.18583,-0.224953 -0.71398,-0.4303448 -0.52815,-0.2053919 -1.56489,-0.4890282 -1.42796,-0.381442 -2.32777,-1.0954232 -0.89003,-0.7139811 -0.89003,-2.0930405 0,-1.38884 1.1541,-2.298433 1.16389,-0.909592 3.35474,-0.909592 1.38884,0 2.4158,0.361881 1.03674,0.3521 1.78984,0.899812 l -1.23235,1.819185 q -0.64552,-0.401004 -1.38884,-0.635737 -0.74332,-0.244514 -1.49643,-0.244514 -1.48664,0 -1.48664,0.802006 0,0.264075 0.18583,0.459687 0.19561,0.18583 0.72376,0.391222 0.52815,0.195611 1.54533,0.4890283 1.0074,0.2836363 1.75072,0.6552978 0.7531,0.3716614 1.16389,0.9976175 0.41078,0.6161755 0.41078,1.6333542 0,1.1345454 -0.67486,1.9072099 -0.67486,0.762884 -1.78984,1.144326 -1.11499,0.381442 -2.44514,0.381442 -1.50621,0 -2.66032,-0.4303448 -1.1541,-0.4303448 -1.96589,-1.1345454 l 1.55511,-1.7409404 q 0.60639,0.4694671 1.36928,0.7824451 0.77266,0.312978 1.68226,0.312978 z m 10.63105,0 q 0.77267,0 1.24213,-0.2445141 0.47925,-0.2445141 0.47925,-0.7335422 0,-0.3325392 -0.18583,-0.5574922 -0.18583,-0.224953 -0.71398,-0.4303448 -0.52815,-0.2053919 -1.56489,-0.4890282 -1.42796,-0.381442 -2.32778,-1.0954232 -0.89003,-0.7139811 -0.89003,-2.0930405 0,-1.38884 1.15411,-2.298433 1.16389,-0.909592 3.35473,-0.909592 1.38884,0 2.4158,0.361881 1.03674,0.3521 1.78984,0.899812 l -1.23235,1.819185 q -0.64551,-0.401004 -1.38884,-0.635737 -0.74332,-0.244514 -1.49642,-0.244514 -1.48665,0 -1.48665,0.802006 0,0.264075 0.18583,0.459687 0.19561,0.18583 0.72376,0.391222 0.52815,0.195611 1.54533,0.4890283 1.0074,0.2836363 1.75072,0.6552978 0.75311,0.3716614 1.16389,0.9976175 0.41079,0.6161755 0.41079,1.6333542 0,1.1345454 -0.67486,1.9072099 -0.67486,0.762884 -1.78985,1.144326 -1.11498,0.381442 -2.44514,0.381442 -1.5062,0 -2.66031,-0.4303448 -1.15411,-0.4303448 -1.96589,-1.1345454 l 1.5551,-1.7409404 q 0.6064,0.4694671 1.36928,0.7824451 0.77267,0.312978 1.68226,0.312978 z m 9.14441,-2.4157992 q 0.15649,1.2714733 0.83135,1.8289654 0.67486,0.5477116 1.66269,0.5477116 0.71398,0 1.37906,-0.2347335 0.66508,-0.2347336 1.28126,-0.6259561 l 1.24213,1.682257 q -0.73354,0.6259561 -1.78006,1.0269592 -1.03674,0.4010031 -2.3669,0.4010031 -1.78006,0 -2.98307,-0.7042006 -1.20301,-0.7139812 -1.80941,-1.9561128 -0.60639,-1.2421316 -0.60639,-2.8559247 0,-1.5355486 0.58683,-2.7874606 0.58684,-1.261693 1.7116,-2.005016 1.13455,-0.753103 2.7679,-0.753103 1.48665,0 2.57229,0.635737 1.09542,0.635736 1.69204,1.828965 0.60639,1.193229 0.60639,2.8657052 0,0.2640753 -0.0196,0.5672727 -0.01,0.3031975 -0.0391,0.5379311 z m 1.91699,-4.362132 q -0.83135,0 -1.33994,0.596615 -0.50859,0.596614 -0.61617,1.9072098 h 3.81442 q -0.01,-1.1345458 -0.44013,-1.8191848 -0.43034,-0.68464 -1.41818,-0.68464 z m 10.20071,6.7779312 q 0.77266,0 1.24213,-0.2445141 0.47925,-0.2445141 0.47925,-0.7335422 0,-0.3325392 -0.18583,-0.5574922 -0.18583,-0.224953 -0.71398,-0.4303448 -0.52815,-0.2053919 -1.56489,-0.4890282 -1.42797,-0.381442 -2.32778,-1.0954232 -0.89003,-0.7139811 -0.89003,-2.0930405 0,-1.38884 1.15411,-2.298433 1.16388,-0.909592 3.35473,-0.909592 1.38884,0 2.4158,0.361881 1.03674,0.3521 1.78984,0.899812 l -1.23235,1.819185 q -0.64552,-0.401004 -1.38884,-0.635737 -0.74332,-0.244514 -1.49642,-0.244514 -1.48665,0 -1.48665,0.802006 0,0.264075 0.18583,0.459687 0.19561,0.18583 0.72376,0.391222 0.52815,0.195611 1.54533,0.4890283 1.0074,0.2836363 1.75072,0.6552978 0.75311,0.3716614 1.16389,0.9976175 0.41078,0.6161755 0.41078,1.6333542 0,1.1345454 -0.67486,1.9072099 -0.67485,0.762884 -1.78984,1.144326 -1.11498,0.381442 -2.44514,0.381442 -1.50621,0 -2.66031,-0.4303448 -1.15411,-0.4303448 -1.9659,-1.1345454 l 1.55511,-1.7409404 q 0.6064,0.4694671 1.36928,0.7824451 0.77267,0.312978 1.68226,0.312978 z"
         id="text31"
         style="font-weight:bold;font-size:19.0721px;line-height:0.9;font-family:'Fira Code';-inkscape-font-specification:'Fira Code, Bold';font-variant-ligatures:no-contextual;text-align:center;letter-spacing:-1.10563px;text-anchor:middle;stroke-width:2;stroke-linecap:round;stroke-linejoin:bevel;stroke-opacity:0.998262"
         aria-label="classes" />
      <path
         d="m 858.1797,14.49781 q 0.65062,0 1.06321,0.404655 0.41259,0.404655 0.41259,1.00767 0,0.603015 -0.41259,1.015604 -0.41259,0.404655 -1.06321,0.404655 -0.65856,0 -1.07908,-0.404655 -0.41259,-0.412589 -0.41259,-1.015604 0,-0.603015 0.41259,-1.00767 0.42052,-0.404655 1.07908,-0.404655 z m 1.51547,4.411532 v 6.712511 h 2.14229 v 1.713833 h -7.03782 v -1.713833 h 2.38826 v -4.998678 h -2.30892 v -1.713833 z m 8.26731,-3.610157 2.50728,0.261836 v 11.774665 h -2.22164 l -0.12695,-0.928326 q -0.34911,0.491933 -0.92832,0.848982 -0.57922,0.349114 -1.40439,0.349114 -1.04735,0 -1.73764,-0.563343 -0.68236,-0.563344 -1.02354,-1.571014 -0.33324,-1.015604 -0.33324,-2.372388 0,-1.301244 0.40465,-2.308914 0.40466,-1.00767 1.15842,-1.578948 0.75377,-0.579211 1.79318,-0.579211 1.13462,0 1.91219,0.777572 z m -1.23776,5.165301 q -0.65063,0 -1.04735,0.618884 -0.39672,0.61095 -0.39672,2.031209 0,1.039408 0.16663,1.61862 0.16662,0.571278 0.46019,0.801376 0.29357,0.230097 0.67443,0.230097 0.42052,0 0.7617,-0.261835 0.34911,-0.261836 0.61888,-0.714097 v -3.63396 q -0.26183,-0.325311 -0.5554,-0.507802 -0.29358,-0.182492 -0.68236,-0.182492 z"
         id="text32"
         style="font-weight:bold;font-size:15.4721px;line-height:0.9;font-family:'Fira Code';-inkscape-font-specification:'Fira Code, Bold';font-variant-ligatures:no-contextual;text-align:center;letter-spacing:-0.896937px;text-anchor:middle;stroke-width:2;stroke-linecap:round;stroke-linejoin:bevel;stroke-opacity:0.998262"
         aria-label="id" />
      <path
         d="m 854.79961,44.613297 v -8.426344 h 2.1899 l 0.17456,0.975932 q 0.56334,-0.634753 1.19016,-0.944195 0.62682,-0.309442 1.42819,-0.309442 1.07908,0 1.69796,0.658556 0.61889,0.658556 0.61889,1.856652 v 6.188841 h -2.50728 v -5.466809 q 0,-0.777572 -0.17455,-1.07908 -0.16663,-0.309442 -0.63476,-0.309442 -0.39672,0 -0.7617,0.253901 -0.35705,0.253901 -0.7141,0.706163 v 5.895267 z m 15.71773,-2.42793 q 0,0.476065 0.12695,0.690294 0.13488,0.214229 0.42845,0.32531 l -0.51573,1.650358 q -0.74584,-0.07141 -1.26157,-0.325311 -0.50781,-0.261836 -0.80138,-0.785507 -0.484,0.579212 -1.23777,0.864851 -0.75377,0.277704 -1.53927,0.277704 -1.30125,0 -2.07882,-0.7379 -0.76964,-0.745834 -0.76964,-1.912193 0,-1.372653 1.07115,-2.118487 1.07908,-0.745835 3.03094,-0.745835 h 1.13462 v -0.317376 q 0,-1.293309 -1.66622,-1.293309 -0.40466,0 -1.03941,0.119016 -0.63475,0.111082 -1.2695,0.325311 l -0.57922,-1.666226 q 0.81725,-0.309442 1.69797,-0.46813 0.88865,-0.158689 1.58688,-0.158689 1.88045,0 2.77704,0.769638 0.90453,0.761704 0.90453,2.205766 z m -3.93547,0.904523 q 0.40465,0 0.84898,-0.238033 0.44433,-0.245966 0.67442,-0.690293 v -1.364719 h -0.61888 q -1.04734,0 -1.53927,0.325311 -0.49194,0.317376 -0.49194,0.93626 0,0.483999 0.29357,0.761704 0.30151,0.26977 0.83312,0.26977 z m 11.69498,-7.180642 q 0.89659,0 1.32504,0.587147 0.4364,0.579212 0.4364,1.880455 v 6.236447 h -2.15023 v -5.950808 q 0,-0.444327 -0.0873,-0.626819 -0.0793,-0.182491 -0.33324,-0.182491 -0.19836,0 -0.41259,0.119016 -0.2063,0.111082 -0.4602,0.428458 v 6.212644 h -1.76144 v -5.950808 q 0,-0.444327 -0.0873,-0.626819 -0.0793,-0.182491 -0.33324,-0.182491 -0.19836,0 -0.41259,0.119016 -0.20629,0.111082 -0.4602,0.428458 v 6.212644 H 871.358 v -8.426344 h 1.84078 l 0.16663,0.817244 q 0.39672,-0.53954 0.80137,-0.817244 0.40466,-0.277705 0.96007,-0.277705 0.47606,0 0.80931,0.245967 0.34118,0.238032 0.48399,0.753769 0.38086,-0.444327 0.84105,-0.722031 0.4602,-0.277705 1.01561,-0.277705 z m 4.56988,5.220842 q 0.12695,1.031474 0.67442,1.483735 0.54748,0.444327 1.34885,0.444327 0.57921,0 1.11875,-0.190426 0.53954,-0.190426 1.03941,-0.507802 l 1.00767,1.364719 q -0.59508,0.507802 -1.44406,0.833113 -0.84105,0.32531 -1.92013,0.32531 -1.44406,0 -2.41999,-0.571277 -0.97594,-0.579212 -1.46787,-1.586882 -0.49193,-1.00767 -0.49193,-2.316848 0,-1.245702 0.47606,-2.261307 0.47607,-1.023539 1.38852,-1.626554 0.92039,-0.61095 2.24544,-0.61095 1.20603,0 2.08675,0.515737 0.88865,0.515737 1.37265,1.483735 0.49194,0.967998 0.49194,2.324782 0,0.214229 -0.0159,0.460196 -0.008,0.245966 -0.0317,0.436392 z m 1.55514,-3.538747 q -0.67442,0 -1.08701,0.483999 -0.41259,0.483999 -0.49987,1.54721 h 3.09442 q -0.008,-0.920391 -0.35705,-1.4758 -0.34911,-0.555409 -1.15049,-0.555409 z"
         id="text33"
         style="font-weight:bold;font-size:15.4721px;line-height:0.9;font-family:'Fira Code';-inkscape-font-specification:'Fira Code, Bold';font-variant-ligatures:no-contextual;text-align:center;letter-spacing:-0.896937px;text-anchor:middle;stroke-width:2;stroke-linecap:round;stroke-linejoin:bevel;stroke-opacity:0.998262"
         aria-label="name" />
      <path
         d="m 860.06812,51.473025 2.50727,0.261835 v 11.774665 h -2.22164 l -0.12695,-0.928326 q -0.34911,0.491934 -0.92832,0.848982 -0.57921,0.349114 -1.40439,0.349114 -1.04734,0 -1.73764,-0.563343 -0.68236,-0.563343 -1.02354,-1.571013 -0.33324,-1.015605 -0.33324,-2.372389 0,-1.301243 0.40465,-2.308913 0.40466,-1.00767 1.15843,-1.578948 0.75377,-0.579212 1.79317,-0.579212 1.13462,0 1.9122,0.777572 z m -1.23777,5.165301 q -0.65062,0 -1.04734,0.618884 -0.39672,0.61095 -0.39672,2.031209 0,1.039408 0.16662,1.61862 0.16662,0.571277 0.46019,0.801375 0.29358,0.230098 0.67443,0.230098 0.42052,0 0.7617,-0.261836 0.34912,-0.261835 0.61889,-0.714096 v -3.63396 q -0.26184,-0.325311 -0.55541,-0.507803 -0.29358,-0.182491 -0.68236,-0.182491 z m 12.16311,4.44327 q 0,0.476064 0.12695,0.690293 0.13488,0.21423 0.42846,0.325311 l -0.51574,1.650358 q -0.74584,-0.07141 -1.26157,-0.325311 -0.5078,-0.261836 -0.80138,-0.785507 -0.484,0.579212 -1.23777,0.864851 -0.75376,0.277704 -1.53927,0.277704 -1.30124,0 -2.07882,-0.7379 -0.76963,-0.745834 -0.76963,-1.912193 0,-1.372653 1.07114,-2.118487 1.07908,-0.745835 3.03095,-0.745835 h 1.13462 v -0.317376 q 0,-1.293309 -1.66623,-1.293309 -0.40465,0 -1.03941,0.119016 -0.63475,0.111082 -1.2695,0.325311 l -0.57922,-1.666226 q 0.81725,-0.309442 1.69797,-0.468131 0.88865,-0.158688 1.58688,-0.158688 1.88046,0 2.77704,0.769638 0.90453,0.761703 0.90453,2.205766 z m -3.93547,0.904523 q 0.40465,0 0.84898,-0.238033 0.44433,-0.245967 0.67443,-0.690294 v -1.364718 h -0.61889 q -1.04734,0 -1.53927,0.325311 -0.49194,0.317376 -0.49194,0.93626 0,0.483999 0.29358,0.761704 0.3015,0.26977 0.83311,0.26977 z m 13.43261,-6.902938 -2.80878,8.426344 q -0.55541,1.674161 -1.68209,2.546946 -1.11875,0.872785 -3.03888,0.983867 l -0.28564,-1.769374 q 0.83311,-0.103147 1.34092,-0.309442 0.51573,-0.206294 0.82517,-0.563343 0.31738,-0.349114 0.54748,-0.888654 h -0.85692 l -2.67389,-8.426344 h 2.65009 l 1.63449,6.823593 1.77731,-6.823593 z"
         id="text34"
         style="font-weight:bold;font-size:15.4721px;line-height:0.9;font-family:'Fira Code';-inkscape-font-specification:'Fira Code, Bold';font-variant-ligatures:no-contextual;text-align:center;letter-spacing:-0.896937px;text-anchor:middle;stroke-width:2;stroke-linecap:round;stroke-linejoin:bevel;stroke-opacity:0.998262"
         aria-label="day" />
      <path
         d="m 862.58327,82.97703 q -0.49193,0.317377 -1.19016,0.53954 -0.69823,0.222164 -1.57101,0.222164 -1.65036,0 -2.45174,-0.841048 -0.80137,-0.848982 -0.80137,-2.300979 v -3.824386 h -1.76938 V 75.04262 h 1.76938 v -1.824915 l 2.50727,-0.301507 v 2.126422 h 2.71357 l -0.24597,1.729701 h -2.4676 v 3.824386 q 0,0.626818 0.28564,0.896588 0.28564,0.26977 0.91246,0.26977 0.44432,0 0.80931,-0.103147 0.37292,-0.111082 0.66649,-0.277704 z m 4.67303,-12.345942 q 0.65062,0 1.06321,0.404655 0.41259,0.404654 0.41259,1.00767 0,0.603015 -0.41259,1.015604 -0.41259,0.404655 -1.06321,0.404655 -0.65856,0 -1.07908,-0.404655 -0.41259,-0.412589 -0.41259,-1.015604 0,-0.603016 0.41259,-1.00767 0.42052,-0.404655 1.07908,-0.404655 z m 1.51547,4.411532 v 6.712511 h 2.14229 v 1.713833 h -7.03782 v -1.713833 h 2.38826 v -4.998679 h -2.30892 V 75.04262 Z m 9.70344,-0.277705 q 0.89659,0 1.32505,0.587147 0.43639,0.579212 0.43639,1.880455 v 6.236447 h -2.15022 v -5.950808 q 0,-0.444327 -0.0873,-0.626819 -0.0793,-0.182491 -0.33325,-0.182491 -0.19836,0 -0.41259,0.119016 -0.20629,0.111082 -0.46019,0.428458 v 6.212644 h -1.76144 v -5.950808 q 0,-0.444327 -0.0873,-0.626819 -0.0793,-0.182491 -0.33325,-0.182491 -0.19836,0 -0.41259,0.119016 -0.20629,0.111082 -0.46019,0.428458 v 6.212644 h -2.18196 V 75.04262 h 1.84078 l 0.16662,0.817244 q 0.39672,-0.53954 0.80138,-0.817244 0.40465,-0.277705 0.96006,-0.277705 0.47606,0 0.80931,0.245967 0.34118,0.238032 0.484,0.753769 0.38085,-0.444327 0.84105,-0.722031 0.46019,-0.277705 1.0156,-0.277705 z m 4.56988,5.220842 q 0.12695,1.031474 0.67443,1.483735 0.54747,0.444327 1.34885,0.444327 0.57921,0 1.11875,-0.190426 0.53954,-0.190426 1.0394,-0.507802 l 1.00767,1.364719 q -0.59508,0.507802 -1.44406,0.833113 -0.84105,0.325311 -1.92013,0.325311 -1.44406,0 -2.41999,-0.571278 -0.97593,-0.579212 -1.46787,-1.586882 -0.49193,-1.00767 -0.49193,-2.316848 0,-1.245702 0.47606,-2.261307 0.47607,-1.023539 1.38853,-1.626554 0.92039,-0.61095 2.24543,-0.61095 1.20604,0 2.08675,0.515737 0.88866,0.515737 1.37266,1.483735 0.49193,0.967998 0.49193,2.324782 0,0.214229 -0.0159,0.460196 -0.008,0.245967 -0.0317,0.436392 z m 1.55514,-3.538747 q -0.67442,0 -1.08701,0.483999 -0.41259,0.483999 -0.49987,1.54721 h 3.09442 q -0.008,-0.920391 -0.35705,-1.4758 -0.34911,-0.555409 -1.15049,-0.555409 z"
         id="text35"
         style="font-weight:bold;font-size:15.4721px;line-height:0.9;font-family:'Fira Code';-inkscape-font-specification:'Fira Code, Bold';font-variant-ligatures:no-contextual;text-align:center;letter-spacing:-0.896937px;text-anchor:middle;stroke-width:2;stroke-linecap:round;stroke-linejoin:bevel;stroke-opacity:0.998262"
         aria-label="time" />
      <path
         d="m 1028.7167,14.49781 q 0.6506,0 1.0632,0.404655 0.4126,0.404655 0.4126,1.00767 0,0.603015 -0.4126,1.015604 -0.4126,0.404655 -1.0632,0.404655 -0.6586,0 -1.0791,-0.404655 -0.4126,-0.412589 -0.4126,-1.015604 0,-0.603015 0.4126,-1.00767 0.4205,-0.404655 1.0791,-0.404655 z m 1.5155,4.411532 v 6.712511 h 2.1423 v 1.713833 h -7.0379 v -1.713833 h 2.3883 v -4.998678 h -2.3089 v -1.713833 z m 3.4749,8.426344 v -8.426344 h 2.1899 l 0.1746,0.975932 q 0.5633,-0.634752 1.1901,-0.944194 0.6268,-0.309442 1.4282,-0.309442 1.0791,0 1.698,0.658556 0.6189,0.658556 0.6189,1.856652 v 6.18884 h -2.5073 v -5.466809 q 0,-0.777572 -0.1746,-1.07908 -0.1666,-0.309442 -0.6347,-0.309442 -0.3967,0 -0.7617,0.253901 -0.3571,0.253901 -0.7141,0.706163 v 5.895267 z m 16.2097,-0.491934 q -0.492,0.317377 -1.1902,0.53954 -0.6982,0.222164 -1.571,0.222164 -1.6504,0 -2.4517,-0.841048 -0.8014,-0.848982 -0.8014,-2.300979 v -3.824386 h -1.7694 v -1.729701 h 1.7694 v -1.824914 l 2.5073,-0.301508 v 2.126422 h 2.7135 l -0.2459,1.729701 h -2.4676 v 3.824386 q 0,0.626819 0.2856,0.896589 0.2856,0.269769 0.9124,0.269769 0.4444,0 0.8094,-0.103147 0.3729,-0.111082 0.6664,-0.277704 z"
         id="text36"
         style="font-weight:bold;font-size:15.4721px;line-height:0.9;font-family:'Fira Code';-inkscape-font-specification:'Fira Code, Bold';font-variant-ligatures:no-contextual;text-align:center;letter-spacing:-0.896937px;text-anchor:middle;fill:#64717e;stroke-width:2;stroke-linecap:round;stroke-linejoin:bevel;stroke-opacity:0.998262"
         aria-label="int" />
      <path
         d="m 1024.0437,44.121363 q -0.4919,0.317376 -1.1901,0.53954 -0.6983,0.222163 -1.5711,0.222163 -1.6503,0 -2.4517,-0.841047 -0.8014,-0.848982 -0.8014,-2.300979 v -3.824386 h -1.7693 v -1.729701 h 1.7693 v -1.824915 l 2.5073,-0.301507 v 2.126422 h 2.7136 l -0.246,1.729701 h -2.4676 v 3.824386 q 0,0.626818 0.2856,0.896588 0.2857,0.26977 0.9125,0.26977 0.4443,0 0.8093,-0.103147 0.3729,-0.111082 0.6665,-0.277704 z m 3.2131,-2.991273 q 0.127,1.031474 0.6744,1.483735 0.5475,0.444327 1.3489,0.444327 0.5792,0 1.1187,-0.190426 0.5396,-0.190426 1.0394,-0.507802 l 1.0077,1.364719 q -0.5951,0.507802 -1.444,0.833113 -0.8411,0.32531 -1.9202,0.32531 -1.444,0 -2.42,-0.571277 -0.9759,-0.579212 -1.4678,-1.586882 -0.492,-1.00767 -0.492,-2.316848 0,-1.245702 0.4761,-2.261307 0.4761,-1.023539 1.3885,-1.626554 0.9204,-0.61095 2.2455,-0.61095 1.206,0 2.0867,0.515737 0.8887,0.515737 1.3727,1.483735 0.4919,0.967998 0.4919,2.324782 0,0.214229 -0.016,0.460196 -0.01,0.245966 -0.032,0.436392 z m 1.5552,-3.538747 q -0.6745,0 -1.0871,0.483999 -0.4125,0.483999 -0.4998,1.54721 h 3.0944 q -0.01,-0.920391 -0.3571,-1.4758 -0.3491,-0.555409 -1.1504,-0.555409 z m 6.847,7.021954 h -2.7136 l 2.8882,-4.427401 -2.6184,-3.998943 h 2.8088 l 1.3488,2.697699 1.3013,-2.697699 h 2.666 l -2.4756,3.90373 2.904,4.522614 h -2.8405 l -1.6662,-3.149961 z m 14.2578,-0.491934 q -0.4919,0.317376 -1.1902,0.53954 -0.6982,0.222163 -1.571,0.222163 -1.6503,0 -2.4517,-0.841047 -0.8014,-0.848982 -0.8014,-2.300979 v -3.824386 h -1.7693 v -1.729701 h 1.7693 v -1.824915 l 2.5073,-0.301507 v 2.126422 h 2.7136 l -0.246,1.729701 h -2.4676 v 3.824386 q 0,0.626818 0.2856,0.896588 0.2857,0.26977 0.9125,0.26977 0.4443,0 0.8093,-0.103147 0.3729,-0.111082 0.6665,-0.277704 z"
         id="text37"
         style="font-weight:bold;font-size:15.4721px;line-height:0.9;font-family:'Fira Code';-inkscape-font-specification:'Fira Code, Bold';font-variant-ligatures:no-contextual;text-align:center;letter-spacing:-0.896937px;text-anchor:middle;fill:#64717e;stroke-width:2;stroke-linecap:round;stroke-linejoin:bevel;stroke-opacity:0.998262"
         aria-label="text" />
      <path
         d="m 1024.0437,63.017592 q -0.4919,0.317376 -1.1901,0.53954 -0.6983,0.222163 -1.5711,0.222163 -1.6503,0 -2.4517,-0.841047 -0.8014,-0.848982 -0.8014,-2.300979 v -3.824386 h -1.7693 v -1.729702 h 1.7693 v -1.824914 l 2.5073,-0.301508 v 2.126422 h 2.7136 l -0.246,1.729702 h -2.4676 v 3.824386 q 0,0.626818 0.2856,0.896588 0.2857,0.26977 0.9125,0.26977 0.4443,0 0.8093,-0.103147 0.3729,-0.111082 0.6665,-0.277705 z m 3.2131,-2.991273 q 0.127,1.031473 0.6744,1.483735 0.5475,0.444327 1.3489,0.444327 0.5792,0 1.1187,-0.190426 0.5396,-0.190426 1.0394,-0.507802 l 1.0077,1.364718 q -0.5951,0.507803 -1.444,0.833113 -0.8411,0.325311 -1.9202,0.325311 -1.444,0 -2.42,-0.571277 -0.9759,-0.579212 -1.4678,-1.586882 -0.492,-1.00767 -0.492,-2.316848 0,-1.245703 0.4761,-2.261307 0.4761,-1.023539 1.3885,-1.626554 0.9204,-0.61095 2.2455,-0.61095 1.206,0 2.0867,0.515737 0.8887,0.515736 1.3727,1.483735 0.4919,0.967998 0.4919,2.324782 0,0.214229 -0.016,0.460196 -0.01,0.245966 -0.032,0.436392 z m 1.5552,-3.538747 q -0.6745,0 -1.0871,0.483999 -0.4125,0.483999 -0.4998,1.54721 h 3.0944 q -0.01,-0.920391 -0.3571,-1.4758 -0.3491,-0.555409 -1.1504,-0.555409 z m 6.847,7.021953 h -2.7136 l 2.8882,-4.427401 -2.6184,-3.998943 h 2.8088 l 1.3488,2.6977 1.3013,-2.6977 h 2.666 l -2.4756,3.90373 2.904,4.522614 h -2.8405 l -1.6662,-3.149961 z m 14.2578,-0.491933 q -0.4919,0.317376 -1.1902,0.53954 -0.6982,0.222163 -1.571,0.222163 -1.6503,0 -2.4517,-0.841047 -0.8014,-0.848982 -0.8014,-2.300979 v -3.824386 h -1.7693 v -1.729702 h 1.7693 v -1.824914 l 2.5073,-0.301508 v 2.126422 h 2.7136 l -0.246,1.729702 h -2.4676 v 3.824386 q 0,0.626818 0.2856,0.896588 0.2857,0.26977 0.9125,0.26977 0.4443,0 0.8093,-0.103147 0.3729,-0.111082 0.6665,-0.277705 z"
         id="text38"
         style="font-weight:bold;font-size:15.4721px;line-height:0.9;font-family:'Fira Code';-inkscape-font-specification:'Fira Code, Bold';font-variant-ligatures:no-contextual;text-align:center;letter-spacing:-0.896937px;text-anchor:middle;fill:#64717e;stroke-width:2;stroke-linecap:round;stroke-linejoin:bevel;stroke-opacity:0.998262"
         aria-label="text" />
      <path
         d="m 1023.9485,82.97703 q -0.4919,0.317377 -1.1902,0.53954 -0.6982,0.222164 -1.571,0.222164 -1.6503,0 -2.4517,-0.841048 -0.8014,-0.848982 -0.8014,-2.300979 v -3.824386 h -1.7694 V 75.04262 h 1.7694 v -1.824915 l 2.5073,-0.301507 v 2.126422 h 2.7136 l -0.246,1.729701 h -2.4676 v 3.824386 q 0,0.626818 0.2856,0.896588 0.2857,0.26977 0.9125,0.26977 0.4443,0 0.8093,-0.103147 0.3729,-0.111082 0.6665,-0.277704 z m 4.673,-12.345942 q 0.6507,0 1.0632,0.404655 0.4126,0.404654 0.4126,1.00767 0,0.603015 -0.4126,1.015604 -0.4125,0.404655 -1.0632,0.404655 -0.6585,0 -1.079,-0.404655 -0.4126,-0.412589 -0.4126,-1.015604 0,-0.603016 0.4126,-1.00767 0.4205,-0.404655 1.079,-0.404655 z m 1.5155,4.411532 v 6.712511 h 2.1423 v 1.713833 h -7.0378 v -1.713833 h 2.3882 v -4.998679 h -2.3089 V 75.04262 Z m 9.7034,-0.277705 q 0.8966,0 1.3251,0.587147 0.4364,0.579212 0.4364,1.880455 v 6.236447 h -2.1502 v -5.950808 q 0,-0.444327 -0.087,-0.626819 -0.079,-0.182491 -0.3333,-0.182491 -0.1983,0 -0.4126,0.119016 -0.2062,0.111082 -0.4601,0.428458 v 6.212644 h -1.7615 v -5.950808 q 0,-0.444327 -0.087,-0.626819 -0.079,-0.182491 -0.3332,-0.182491 -0.1984,0 -0.4126,0.119016 -0.2063,0.111082 -0.4602,0.428458 v 6.212644 h -2.182 V 75.04262 h 1.8408 l 0.1666,0.817244 q 0.3968,-0.53954 0.8014,-0.817244 0.4047,-0.277705 0.9601,-0.277705 0.476,0 0.8093,0.245967 0.3412,0.238032 0.484,0.753769 0.3808,-0.444327 0.841,-0.722031 0.4602,-0.277705 1.0156,-0.277705 z m 4.5699,5.220842 q 0.127,1.031474 0.6744,1.483735 0.5475,0.444327 1.3489,0.444327 0.5792,0 1.1188,-0.190426 0.5395,-0.190426 1.0394,-0.507802 l 1.0076,1.364719 q -0.5951,0.507802 -1.444,0.833113 -0.8411,0.325311 -1.9202,0.325311 -1.444,0 -2.42,-0.571278 -0.9759,-0.579212 -1.4678,-1.586882 -0.492,-1.00767 -0.492,-2.316848 0,-1.245702 0.4761,-2.261307 0.4761,-1.023539 1.3885,-1.626554 0.9204,-0.61095 2.2455,-0.61095 1.206,0 2.0867,0.515737 0.8887,0.515737 1.3727,1.483735 0.4919,0.967998 0.4919,2.324782 0,0.214229 -0.016,0.460196 -0.01,0.245967 -0.032,0.436392 z m 1.5552,-3.538747 q -0.6745,0 -1.087,0.483999 -0.4126,0.483999 -0.4999,1.54721 h 3.0944 q -0.01,-0.920391 -0.357,-1.4758 -0.3492,-0.555409 -1.1505,-0.555409 z"
         id="text39"
         style="font-weight:bold;font-size:15.4721px;line-height:0.9;font-family:'Fira Code';-inkscape-font-specification:'Fira Code, Bold';font-variant-ligatures:no-contextual;text-align:center;letter-spacing:-0.896937px;text-anchor:middle;fill:#64717e;stroke-width:2;stroke-linecap:round;stroke-linejoin:bevel;stroke-opacity:0.998262"
         aria-label="time" />
    </g>
    <path
       id="path43"
       style="fill:none;fill-opacity:1;stroke:url(#swatch7);stroke-width:1.13045;stroke-linecap:round;stroke-linejoin:round;stroke-dasharray:none;stroke-opacity:0.998262"
       d="m 465.76345,8.9029015 -4.91643,4.5227325 4.84147,4.453783 M 424.08665,2.2521579 h 16.4534 a 3.8980675,3.5859188 0 0 1 3.89807,3.5859186 v 3.9540042 a 3.8980675,3.5859188 0 0 0 3.89807,3.5859183 h 17.11768" />
  </g>
</svg>
